<?xml version="1.0" encoding="UTF-8" standalone="no"?>
<svg
   version="1.2"
   width="192.73164mm"
   height="133.89mm"
   viewBox="0 0 19273.165 13389"
   preserveAspectRatio="xMidYMid"
   fill-rule="evenodd"
   stroke-width="28.222"
   stroke-linejoin="round"
   xml:space="preserve"
   id="svg1571"
   sodipodi:docname="1aaa.svg"
   inkscape:version="1.2.2 (732a01da63, 2022-12-09, custom)"
   xmlns:inkscape="http://www.inkscape.org/namespaces/inkscape"
   xmlns:sodipodi="http://sodipodi.sourceforge.net/DTD/sodipodi-0.dtd"
   xmlns="http://www.w3.org/2000/svg"
   xmlns:svg="http://www.w3.org/2000/svg"
   xmlns:ooo="http://xml.openoffice.org/svg/export"><sodipodi:namedview
   id="namedview1573"
   pagecolor="#ffffff"
   bordercolor="#000000"
   borderopacity="0.25"
   inkscape:showpageshadow="2"
   inkscape:pageopacity="0.0"
   inkscape:pagecheckerboard="0"
   inkscape:deskcolor="#d1d1d1"
   inkscape:document-units="mm"
   showgrid="false"
   inkscape:zoom="1.2150582"
   inkscape:cx="358.00754"
   inkscape:cy="319.32626"
   inkscape:window-width="1920"
   inkscape:window-height="1031"
   inkscape:window-x="0"
   inkscape:window-y="25"
   inkscape:window-maximized="1"
   inkscape:current-layer="layer7" />
 <defs
   class="ClipPathGroup"
   id="defs1121">
  <clipPath
   id="presentation_clip_path"
   clipPathUnits="userSpaceOnUse">
   <rect
   x="0"
   y="0"
   width="26030"
   height="18030"
   id="rect1115" />
  </clipPath>
  <clipPath
   id="presentation_clip_path_shrink"
   clipPathUnits="userSpaceOnUse">
   <rect
   x="26"
   y="18"
   width="25978"
   height="17994"
   id="rect1118" />
  </clipPath>
 </defs>
 <defs
   class="TextShapeIndex"
   id="defs1125">
  <g
   ooo:slide="id1"
   ooo:id-list="id3 id4 id5 id6 id7 id8 id9 id10 id11 id12 id13 id14 id15 id16 id17 id18 id19 id20 id21 id22 id23 id24 id25 id26 id27 id28 id29 id30 id31 id32 id33 id34 id35 id36 id37 id38 id39 id40 id41 id42 id43 id44 id45 id46 id47 id48 id49 id50 id51 id52 id53 id54 id55 id56 id57 id58 id59"
   id="g1123" />
 </defs>
 <defs
   class="EmbeddedBulletChars"
   id="defs1157">
  <g
   id="bullet-char-template-57356"
   transform="matrix(4.8828125e-4,0,0,-4.8828125e-4,0,0)">
   <path
   d="M 580,1141 1163,571 580,0 -4,571 Z"
   id="path1127" />
  </g>
  <g
   id="bullet-char-template-57354"
   transform="matrix(4.8828125e-4,0,0,-4.8828125e-4,0,0)">
   <path
   d="M 8,1128 H 1137 V 0 H 8 Z"
   id="path1130" />
  </g>
  <g
   id="bullet-char-template-10146"
   transform="matrix(4.8828125e-4,0,0,-4.8828125e-4,0,0)">
   <path
   d="M 174,0 602,739 174,1481 1456,739 Z M 1358,739 309,1346 659,739 Z"
   id="path1133" />
  </g>
  <g
   id="bullet-char-template-10132"
   transform="matrix(4.8828125e-4,0,0,-4.8828125e-4,0,0)">
   <path
   d="M 2015,739 1276,0 H 717 l 543,543 H 174 v 393 h 1086 l -543,545 h 557 z"
   id="path1136" />
  </g>
  <g
   id="bullet-char-template-10007"
   transform="matrix(4.8828125e-4,0,0,-4.8828125e-4,0,0)">
   <path
   d="m 0,-2 c -7,16 -16,29 -25,39 l 381,530 c -94,256 -141,385 -141,387 0,25 13,38 40,38 9,0 21,-2 34,-5 21,4 42,12 65,25 l 27,-13 111,-251 280,301 64,-25 24,25 c 21,-10 41,-24 62,-43 C 886,937 835,863 770,784 769,783 710,716 594,584 L 774,223 c 0,-27 -21,-55 -63,-84 l 16,-20 C 717,90 699,76 672,76 641,76 570,178 457,381 L 164,-76 c -22,-34 -53,-51 -92,-51 -42,0 -63,17 -64,51 -7,9 -10,24 -10,44 0,9 1,19 2,30 z"
   id="path1139" />
  </g>
  <g
   id="bullet-char-template-10004"
   transform="matrix(4.8828125e-4,0,0,-4.8828125e-4,0,0)">
   <path
   d="M 285,-33 C 182,-33 111,30 74,156 52,228 41,333 41,471 c 0,78 14,145 41,201 34,71 87,106 158,106 53,0 88,-31 106,-94 l 23,-176 c 8,-64 28,-97 59,-98 l 735,706 c 11,11 33,17 66,17 42,0 63,-15 63,-46 V 965 c 0,-36 -10,-64 -30,-84 L 442,47 C 390,-6 338,-33 285,-33 Z"
   id="path1142" />
  </g>
  <g
   id="bullet-char-template-9679"
   transform="matrix(4.8828125e-4,0,0,-4.8828125e-4,0,0)">
   <path
   d="M 813,0 C 632,0 489,54 383,161 276,268 223,411 223,592 c 0,181 53,324 160,431 106,107 249,161 430,161 179,0 323,-54 432,-161 108,-107 162,-251 162,-431 0,-180 -54,-324 -162,-431 C 1136,54 992,0 813,0 Z"
   id="path1145" />
  </g>
  <g
   id="bullet-char-template-8226"
   transform="matrix(4.8828125e-4,0,0,-4.8828125e-4,0,0)">
   <path
   d="m 346,457 c -73,0 -137,26 -191,78 -54,51 -81,114 -81,188 0,73 27,136 81,188 54,52 118,78 191,78 73,0 134,-26 185,-79 51,-51 77,-114 77,-187 0,-75 -25,-137 -76,-188 -50,-52 -112,-78 -186,-78 z"
   id="path1148" />
  </g>
  <g
   id="bullet-char-template-8211"
   transform="matrix(4.8828125e-4,0,0,-4.8828125e-4,0,0)">
   <path
   d="M -4,459 H 1135 V 606 H -4 Z"
   id="path1151" />
  </g>
  <g
   id="bullet-char-template-61548"
   transform="matrix(4.8828125e-4,0,0,-4.8828125e-4,0,0)">
   <path
   d="m 173,740 c 0,163 58,303 173,419 116,115 255,173 419,173 163,0 302,-58 418,-173 116,-116 174,-256 174,-419 0,-163 -58,-303 -174,-418 C 1067,206 928,148 765,148 601,148 462,206 346,322 231,437 173,577 173,740 Z"
   id="path1154" />
  </g>
 </defs>
 
 <g
   inkscape:groupmode="layer"
   id="layer1"
   inkscape:label="Base"
   style="display:inline"
   transform="translate(-3437.1877,-2055)"><path
     fill="#000000"
     stroke="none"
     d="m 16201,12322 c -155,63 -418,276 -438,477 -26,257 211,320 316,481 12,-89 365,94 496,216 -15,-63 -4,-134 5,-197 28,-178 64,-422 -210,-763 -52,-64 -109,-136 -169,-214 z M 3482,5172 c -26,-129 -40,-259 -44,-390 -4,-131 7,-263 28,-392 21,-129 57,-256 103,-378 22,-62 51,-121 79,-180 31,-57 61,-115 97,-169 70,-110 149,-213 239,-306 90,-93 186,-178 290,-252 207,-152 437,-262 675,-345 239,-79 487,-124 734,-142 248,-17 497,-9 742,26 244,36 486,96 712,202 111,54 220,120 309,209 45,45 84,97 110,156 26,59 38,125 30,188 -16,129 -84,429 -493,781 l -3,3 c -10,12 -19,25 -29,38 -83,100 -176,189 -276,266 -202,155 -433,269 -689,334 -128,32 -263,52 -404,49 -141,-4 -290,-28 -433,-93 -142,-62 -274,-175 -344,-312 -35,-68 -56,-140 -63,-210 -7,-70 -2,-138 17,-203 50,46 96,88 142,122 46,34 91,60 135,77 88,36 167,42 249,41 164,-4 350,-44 546,-92 197,-49 403,-107 618,-162 108,-27 218,-53 331,-80 l 172,-40 c 28,-7 58,-14 86,-22 5,-2 10,-4 15,-5 191,-184 673,-831 -751,-1137 -238,-22 -479,-18 -714,11 -236,28 -469,83 -687,168 -216,88 -425,200 -603,347 -90,71 -172,152 -247,238 -75,86 -140,180 -196,278 -29,48 -52,100 -77,150 -21,53 -43,104 -59,158 -35,107 -60,217 -72,328 -12,111 -16,224 -7,336 9,111 27,222 54,331 56,217 148,426 268,617 29,48 63,94 94,140 35,45 68,91 105,134 l 55,64 c 18,19 36,40 55,57 37,37 76,70 117,101 163,121 354,181 557,183 204,2 417,-51 624,-131 207,-81 410,-189 608,-311 197,-122 390,-257 580,-400 182,-137 361,-281 548,-427 63,-231 163,-441 314,-614 464,-530 1450,-670 2195,-694 257,-8 510,-4 751,10 h 1 c 639,37 1194,141 1506,247 829,280 3596,-77 5165,-584 -76,-101 -168,-183 -252,-206 6,-39 147,-64 342,-77 -63,-83 -136,-148 -198,-165 l -72,-21 10,-74 c 3,-20 14,-50 47,-74 158,-115 1072,-100 1418,-41 123,21 237,-16 324,-80 73,-243 62,-517 -89,-668 3,0 6,1 9,2 l -32,-32 256,38 c 205,30 352,260 495,483 103,162 221,345 316,357 11,1 44,5 99,-48 255,-246 705,-145 1012,16 253,132 240,212 235,243 -6,35 -33,76 -92,86 -69,11 -211,230 -250,348 230,-16 690,91 959,232 325,170 56,846 -47,1074 21,23 52,53 81,82 261,257 871,860 388,1565 -123,179 -171,321 -135,399 44,99 232,122 344,135 100,13 160,20 187,78 14,31 10,67 -9,96 -7,10 -23,49 -38,84 -69,161 -187,438 -371,556 -121,215 -300,408 -535,216 -6,-5 -12,-9 -17,-14 16,463 246,1182 454,1266 93,38 103,106 104,134 0,58 -37,111 -102,152 -131,151 -476,330 -756,201 6,370 -43,879 -486,1135 -71,89 -163,168 -283,228 157,-513 47,-813 -266,-649 -257,134 -527,513 -616,837 -5,25 -7,48 -7,70 0,34 -1,80 -22,114 0,6 -1,12 -1,17 0,349 -511,-267 -301,-711 -97,-2 -205,51 -310,142 -210,316 -367,790 -243,1150 l 33,94 -99,18 c -37,6 -73,9 -107,9 -42,0 -82,-5 -120,-14 5,85 19,168 46,245 -260,34 -444,-75 -580,-251 21,137 12,301 2,471 -14,223 -27,453 27,626 47,150 450,646 662,658 161,8 271,62 344,120 115,-44 289,-90 327,79 89,390 206,480 199,544 11,15 12,17 18,25 l 137,338 -355,-217 -143,99 c -30,21 -59,39 -87,55 l -15,297 -170,-226 c -114,20 -228,-7 -398,-58 -34,-10 -53,-14 -67,-13 l -19,378 -205,-273 c -93,17 -227,15 -440,-22 -3,1 -6,2 -10,3 l -14,292 -182,-242 c -67,12 -129,18 -185,18 -329,0 -466,-197 -549,-388 -39,-91 -31,-248 -21,-447 16,-293 37,-693 -142,-726 -80,-15 -132,-43 -165,-78 -36,90 72,463 2,477 -71,14 -856,-76 -1284,-114 -193,-167 -623,-483 -580,-501 43,-19 -29,-852 398,-1448 229,-319 271,-577 261,-748 -268,-383 -511,-748 -649,-981 -198,-30 -469,-89 -564,-186 -459,-132 -1100,-448 -1754,-793 -117,-62 -228,-120 -253,-129 -3,-1 -7,-2 -12,-4 52,265 190,1019 84,1115 -128,118 -725,702 -768,901 -43,199 345,1380 492,1452 358,0 648,-97 972,-145 l 340,394 -101,97 c 48,87 58,106 86,159 -56,34 -106,72 -168,104 9,47 10,84 1,102 -42,86 -1323,157 -1693,71 -370,-85 -380,-465 -570,-697 -189,-418 -148,-719 -568,-1252 -303,-386 625,-954 399,-1253 -206,-270 -342,-697 -608,-674 v 1 c -27,197 -48,353 -80,445 -63,180 -282,347 -535,540 -243,185 -518,394 -606,601 -361,857 225,1504 230,1509 32,27 292,152 764,98 158,-18 297,24 411,125 230,206 281,594 281,714 0,72 -43,119 -115,152 l -16,316 -194,-258 c -73,12 -154,22 -238,32 -54,6 -109,13 -158,20 l -15,292 -186,-248 c -45,9 -99,13 -159,13 -63,0 -131,-4 -199,-10 l -13,245 -203,-271 c -123,-18 -222,-37 -253,-43 -16,-2 -74,-8 -156,-20 l -12,248 -213,-283 c -216,-38 -474,-97 -640,-180 -110,-55 -172,-114 -194,-186 -31,-97 16,-183 65,-275 32,-59 65,-120 84,-192 29,-109 -100,-669 -204,-1119 -184,-797 -264,-1187 -209,-1327 23,-56 74,-139 145,-255 271,-439 776,-1257 487,-1864 -210,-444 -554,-1390 -611,-2284 -217,125 -585,226 -792,339 -224,122 -457,232 -708,315 -249,81 -520,137 -803,120 -141,-10 -285,-38 -420,-91 -135,-52 -261,-127 -370,-217 -54,-46 -105,-94 -151,-145 -25,-26 -46,-52 -68,-79 l -59,-77 c -41,-51 -76,-106 -113,-159 -34,-56 -70,-110 -100,-168 -128,-227 -222,-474 -274,-730 z"
     id="path1166"
     style="display:inline" /></g><g
   inkscape:groupmode="layer"
   id="layer2"
   inkscape:label="Skin"
   style="display:inline"
   transform="translate(-3437.1877,-2055)"><path
     fill="#ffbf00"
     stroke="none"
     d="m 18582,6688 c -21,89 -45,177 -74,263 -29,86 -62,172 -108,247 v 1 l -1,1 c -32,63 -64,126 -102,185 -37,60 -77,117 -122,169 -46,52 -96,100 -152,135 -44,28 -92,47 -139,53 -88,-179 -254,-268 -401,-347 -127,-67 -237,-126 -271,-225 -45,-130 68,-600 128,-852 28,-115 48,-198 52,-236 76,-717 340,-1045 548,-1194 177,-127 388,-176 577,-133 328,74 509,827 511,834 l 36,153 47,-150 c 2,-8 264,-835 783,-796 507,39 893,1128 922,1211 15,208 44,400 69,569 70,462 116,767 -173,900 -417,191 -459,242 -540,391 l -20,35 17,22 c 24,33 45,89 59,158 -1,-1 -2,-1 -3,-1 -16,-7 -33,-15 -50,-28 -33,-23 -63,-55 -92,-88 -58,-67 -108,-143 -155,-220 -47,-78 -91,-158 -133,-239 -20,-41 -40,-82 -60,-123 -9,-20 -20,-42 -27,-62 -1,-2 -2,-4 -3,-6 -6,-22 -13,-43 -21,-64 -47,-172 -76,-352 -106,-530 -29,-181 -55,-362 -79,-544 16,182 35,365 58,547 17,135 34,270 58,405 -27,-37 -58,-69 -95,-95 31,63 57,125 77,188 20,62 33,125 40,189 6,63 5,126 -8,189 -11,57 -33,113 -62,171 -11,-10 -27,-19 -47,-26 -28,-8 -216,-90 -470,-99 -234,-8 -515,36 -612,63 -22,-54 -25,-108 -22,-163 3,-62 17,-124 34,-184 17,-60 39,-120 66,-178 27,-58 58,-114 97,-171 -45,22 -84,54 -118,92 18,-47 33,-95 47,-143 26,-89 46,-178 63,-269 35,-180 59,-362 75,-545 -24,182 -56,362 -98,540 z"
     id="path1173"
     style="display:inline" /><path
     fill="#ffbf00"
     stroke="none"
     d="m 10858,4006 c 186,22 436,81 558,138 76,36 146,85 209,145 62,60 117,132 168,208 103,152 193,329 336,466 72,68 157,121 247,154 91,34 186,50 280,55 -93,-16 -184,-42 -267,-84 -82,-42 -155,-100 -213,-169 -118,-140 -183,-315 -272,-487 -45,-86 -96,-172 -161,-251 -20,-25 -42,-48 -65,-70 189,35 352,76 481,120 780,263 2787,22 4313,-292 -6,54 -8,121 -4,201 -15,6 -28,13 -38,21 -93,72 -22,585 25,921 -35,16 -73,32 -107,46 -243,101 -610,254 -781,576 l -74,141 159,-16 c 8,-1 15,-1 23,-2 -79,67 -149,146 -199,241 266,-28 466,228 519,470 -250,255 -552,613 -537,946 -53,108 -86,217 -81,320 142,36 412,32 498,178 -16,23 -34,47 -52,71 -138,185 -307,411 -300,702 -84,156 -142,323 -117,504 166,-208 473,-426 587,-171 114,256 -251,1243 63,1571 270,-271 388,-694 616,-523 227,171 223,1161 -204,1263 362,82 907,-41 1053,-431 44,-20 84,-41 119,-65 13,353 66,1029 236,1229 86,101 71,350 57,591 -14,238 -29,484 35,687 55,177 502,761 815,778 226,12 305,138 322,171 2,20 -3,73 -7,115 -8,78 -16,171 -12,258 -32,28 -172,221 -172,221 l 9,12 c -59,-7 -128,-26 -224,-54 -15,-5 -29,-8 -42,-11 11,-31 19,-63 25,-95 13,-95 6,-190 -29,-277 -19,-44 -43,-86 -83,-118 l -15,-12 -18,-9 c -12,-6 -22,-9 -32,-12 l -61,-18 c -40,-12 -80,-24 -114,-45 -35,-20 -58,-56 -69,-97 4,41 21,85 56,114 34,30 74,48 111,67 37,20 81,36 99,59 22,26 36,61 44,97 16,73 9,152 -14,221 -13,36 -30,69 -51,99 -31,-38 -61,-70 -71,-65 -16,8 -111,136 -154,195 -73,5 -181,-1 -348,-31 8,-33 15,-66 21,-101 11,-86 16,-179 -20,-269 -41,-90 -116,-145 -191,-182 -37,-18 -76,-33 -112,-50 -34,-17 -75,-39 -74,-83 -4,20 2,42 16,59 13,17 30,29 47,42 34,24 69,45 101,69 64,45 116,108 132,172 14,67 -1,142 -24,214 -2,4 -4,9 -5,13 -26,-29 -49,-52 -57,-48 -22,11 -177,224 -177,224 l 6,7 c -325,29 -407,-159 -460,-281 -24,-54 -15,-222 -7,-370 20,-375 45,-843 -282,-904 -87,-16 -89,-16 -66,-167 28,-185 76,-496 -246,-895 -449,-556 -1186,-1600 -1520,-2135 5,0 9,0 9,0 l -772,-2102 c -16,-73 -25,-119 -25,-127 h -43 c 0,7 6,42 18,97 -9,254 -33,954 -27,1428 -40,-10 -77,-21 -116,-33 -172,-56 -337,-130 -490,-227 -153,-96 -293,-216 -420,-352 -127,-135 -242,-287 -354,-445 -112,-158 -222,-323 -348,-480 -125,-155 -266,-306 -436,-418 -169,-113 -361,-187 -556,-223 -195,-37 -393,-39 -588,-26 195,4 390,25 576,77 185,53 358,140 504,258 148,118 265,268 371,427 105,159 198,329 297,500 99,171 205,340 330,502 96,124 204,241 324,347 -291,-141 -553,-279 -708,-361 -166,-87 -240,-126 -274,-138 -77,-28 -1069,-187 -1751,-21 -157,-341 60,-839 217,-1192 3,-2 5,-4 7,-6 l 42,-105 c 26,-60 49,-113 65,-159 -26,21 -265,173 -288,196 -308,296 -457,769 -544,1214 -23,79 -35,148 -37,207 -10,63 -20,125 -28,185 -2,3 -4,6 -6,9 l 4,2 c -9,62 -17,122 -25,178 -24,180 -45,336 -72,412 -45,131 -264,298 -477,460 -272,207 -554,422 -659,671 -406,962 260,1690 267,1697 70,70 395,203 903,145 110,-12 201,15 278,84 138,123 201,358 219,504 -35,-43 -72,-84 -83,-79 -19,10 -139,173 -169,215 -39,5 -78,10 -113,14 5,-13 10,-26 13,-40 21,-84 7,-170 -24,-240 -31,-71 -76,-130 -125,-182 -48,-53 -103,-98 -155,-145 42,57 86,111 121,171 36,58 65,121 78,183 14,62 8,123 -16,172 -17,35 -45,64 -76,90 -33,-44 -122,-161 -139,-152 -21,11 -172,219 -176,224 -28,1 -60,1 -94,-1 4,-9 7,-19 11,-28 22,-77 15,-150 1,-216 -14,-67 -37,-129 -67,-188 -30,-58 -62,-114 -112,-162 l -6,-5 h -5 l -216,-12 202,47 c 32,46 54,103 71,159 17,57 28,117 30,174 2,57 -6,113 -27,155 -5,9 -11,18 -17,25 v -3 c 0,0 -130,-180 -152,-169 -15,8 -93,112 -140,176 -58,-9 -112,-19 -158,-28 l -8,-1 c -2,-1 -52,-6 -130,-17 7,-17 14,-35 19,-53 19,-66 26,-135 16,-204 -9,-68 -41,-134 -90,-180 -49,-45 -109,-68 -169,-81 55,26 106,62 137,109 31,48 42,103 37,156 -4,47 -20,93 -41,135 -38,-49 -85,-104 -97,-98 -14,7 -84,100 -132,164 -185,-36 -387,-86 -517,-151 -87,-43 -104,-73 -108,-84 -8,-28 22,-84 53,-142 34,-62 75,-139 99,-231 38,-142 -52,-549 -202,-1200 -103,-446 -259,-1120 -217,-1225 17,-43 70,-129 132,-229 288,-467 823,-1337 495,-2027 -336,-710 -1036,-2749 -247,-3650 510,-584 1865,-695 2969,-613 z"
     id="path1180" /><path
     fill="#ffbf00"
     stroke="none"
     d="m 19264,14295 c -4,-9 -12,-24 -23,-42 151,10 158,303 215,434 1,3 2,7 3,10 -25,33 -53,70 -73,98 -40,10 -88,13 -123,12 -10,-45 -13,-137 4,-318 10,-107 13,-156 -3,-194 z"
     id="path1243" /><path
     fill="#ffbf00"
     stroke="none"
     d="m 19193,10331 c -6,0 -12,0 -18,1 -6,0 -12,0 -18,0 -6,0 -13,0 -20,0 h -19 c -8,0 -15,0 -22,0 -7,0 -14,0 -21,0 -8,-1 -16,-1 -23,-1 -8,0 -16,0 -24,0 -4,0 -9,0 -13,0 -16,-89 -43,-253 -43,-253 0,0 -81,171 -122,250 -8,0 -16,0 -25,0 -9,0 -18,0 -27,-1 -9,0 -18,0 -26,0 -10,0 -19,-1 -28,-1 -9,0 -19,0 -28,-1 -9,0 -17,0 -25,0 -10,0 -20,-1 -30,-1 -4,0 -7,0 -10,0 -11,-1 -22,-1 -32,-1 -6,-9 -11,-17 -17,-26 -6,-9 -12,-18 -18,-27 -7,-12 -14,-23 -22,-34 -8,-14 -17,-27 -25,-40 -8,-12 -15,-24 -23,-35 -8,-13 -16,-26 -24,-40 -8,-11 -15,-22 -22,-34 -8,-13 -16,-26 -24,-39 -6,-10 -13,-21 -20,-32 -8,-13 -15,-26 -23,-39 -6,-10 -12,-20 -18,-29 -7,-13 -15,-26 -22,-39 -5,-8 -10,-17 -15,-25 -7,-13 -14,-26 -22,-38 -3,-7 -7,-14 -11,-20 -10,-18 -19,-35 -27,-51 -21,-40 7,-88 52,-88 h 1 l 260,150 c 189,8 496,30 697,-6 100,-17 219,-93 290,-90 21,1 31,16 34,22 3,6 10,23 -2,41 l -5,9 -1,12 c -3,88 -59,245 -306,494 -3,3 -5,6 -8,8 -4,1 -9,1 -14,2 -2,0 -5,0 -7,0 -5,0 -9,0 -13,1 -3,0 -7,0 -10,0 -5,0 -10,0 -16,1 -3,0 -8,0 -12,0 -6,0 -11,0 -17,0 -5,0 -10,0 -16,0 z"
     id="path1264"
     style="display:inline" /><path
     fill="#ffbf00"
     stroke="none"
     d="m 18975,8404 c 126,-254 184,-489 296,-515 117,-27 121,-1 132,47 10,48 3,122 3,122 0,0 252,-188 166,-281 53,-38 95,-93 121,-157 18,-45 28,-95 30,-144 8,18 16,36 24,54 39,84 80,167 125,248 46,81 94,161 153,235 30,38 62,74 102,105 20,17 43,30 69,42 14,5 30,9 46,10 3,30 5,61 6,93 -9,-4 -18,-7 -27,-11 -35,-12 -69,-22 -103,-32 -69,-18 -137,-34 -206,-49 -137,-30 -275,-56 -413,-79 135,37 269,77 402,120 66,22 132,44 197,69 32,13 64,26 94,40 15,7 29,15 42,23 5,4 11,7 14,10 -3,69 -11,138 -27,204 l -362,-119 -208,-67 c -70,-21 -139,-45 -209,-63 68,25 134,55 202,83 l 200,87 355,156 c -19,55 -44,105 -75,148 -10,12 -19,23 -29,33 l -753,-305 682,361 c -64,37 -142,48 -231,32 -111,-54 -213,-132 -321,-161 -160,-57 -326,-103 -496,-110 z"
     id="path1481"
     style="display:inline" /><path
     fill="#ffbf00"
     stroke="none"
     d="m 17828,8872 666,-433 -726,375 c -40,-48 -80,-115 -107,-196 l 720,-362 -741,279 c -16,-85 -16,-182 10,-287 l 1,6 645,-196 -619,105 c 40,-107 109,-220 216,-336 l 1,-1 c 64,-10 122,-39 171,-73 63,-44 115,-98 161,-155 46,-58 85,-119 121,-182 2,-5 4,-9 7,-14 -9,49 -11,99 -5,148 8,60 32,124 76,164 -10,4 -18,7 -20,10 -43,74 115,250 115,250 0,0 29,-96 103,-85 51,7 184,183 267,345 v 399 c -3,0 -130,21 -133,22 -497,93 -643,214 -724,270 -48,31 -129,10 -205,-53 z"
     id="path1516"
     style="display:inline" /></g><g
   inkscape:groupmode="layer"
   id="layer3"
   inkscape:label="Eye 2"
   style="display:inline"
   transform="translate(-3437.1877,-2055)"><path
     fill="#000000"
     stroke="none"
     d="m 19745,6747 c 102,-112 171,-208 246,-208 75,0 400,139 448,-363 81,-58 135,-99 170,-128 34,79 55,167 56,253 2,100 -28,201 -94,279 -65,77 -159,130 -259,162 -100,32 -206,48 -312,55 107,0 214,-8 318,-35 104,-25 207,-73 285,-154 79,-80 121,-194 126,-306 5,-112 -10,-207 -55,-313 l -75,-37 c -26,0 -519,75 -709,256 -91,86 -198,358 -230,384 -32,27 -16,267 85,155 z"
     id="path1194" /><path
     fill="rgb(0,0,0)"
     stroke="none"
     d="m 20171,6448 c 30,-4 58,-14 80,-32 44,-35 65,-96 53,-163 22,27 32,64 27,101 -4,37 -24,72 -54,96 -30,23 -69,34 -105,31 -36,-2 -69,-15 -97,-35 34,3 66,6 96,2 z"
     id="path1187"
     style="fill:#ff0000" /><path
     fill="#000000"
     stroke="none"
     d="m 19758,5571 c 23,-17 51,-28 79,-37 l 44,-9 c 14,-2 29,0 43,0 l 22,1 18,3 37,7 c 25,5 49,10 73,16 48,12 95,25 142,38 46,13 93,26 139,31 23,1 48,3 69,-6 22,-8 39,-26 48,-48 -6,23 -20,45 -43,58 -23,13 -49,15 -74,17 -50,2 -99,-4 -148,-10 -48,-6 -96,-12 -144,-17 -24,-2 -47,-4 -71,-5 l -35,-1 h -18 l -15,1 c -39,2 -74,20 -103,47 -29,26 -54,60 -73,99 -38,76 -63,169 -74,252 l -168,-32 c 15,-54 33,-101 55,-149 22,-48 47,-94 79,-138 30,-45 70,-86 118,-118 z"
     id="path1208" /></g><g
   inkscape:groupmode="layer"
   id="layer4"
   inkscape:label="Eye 1"
   transform="translate(-3437.1877,-2055)"
   style="display:inline"><path
     fill="#000000"
     stroke="none"
     d="m 17506,5900 c -47,69 -54,170 -74,250 -19,79 -23,162 -6,242 17,80 57,153 112,210 55,58 123,99 194,131 -68,-39 -130,-85 -178,-145 -47,-59 -77,-130 -86,-203 -14,-121 23,-243 87,-344 l 247,190 c 0,0 -80,153 43,335 92,134 384,32 384,32 l 201,220 c 83,32 24,-220 24,-220 0,0 -185,-378 -506,-548 -96,-52 -442,-150 -442,-150 z"
     id="path1222" /><path
     fill="#000000"
     stroke="none"
     d="m 18414,5642 -12,-4 -17,-4 c -11,-2 -22,-5 -33,-5 -23,-3 -46,-3 -70,-3 -96,2 -196,24 -299,34 -52,5 -104,8 -155,2 -52,-5 -102,-18 -149,-38 49,13 100,18 149,17 50,-2 99,-11 148,-23 97,-23 192,-59 298,-77 26,-4 53,-8 81,-8 14,-1 28,0 43,1 l 21,1 24,5 c 66,12 122,60 156,111 35,51 54,106 69,160 15,54 23,108 30,161 l -171,10 c 2,-96 -4,-192 -38,-265 -18,-36 -40,-63 -75,-75 z"
     id="path1201" /><path
     fill="rgb(0,0,0)"
     stroke="none"
     d="m 18023,6536 c 30,4 62,1 96,-2 -27,20 -61,33 -97,35 -36,3 -75,-8 -105,-31 -29,-24 -49,-59 -54,-96 -5,-37 5,-74 27,-101 -12,67 9,128 54,163 22,18 49,28 79,32 z"
     id="path1215"
     style="fill:#ff0000" /></g><g
   inkscape:groupmode="layer"
   id="layer5"
   inkscape:label="Line"
   transform="translate(-3437.1877,-2055)"
   style="display:inline"><path
     fill="#000000"
     stroke="none"
     d="m 13889,6220 c 29,-24 56,-50 86,-72 61,-45 114,-80 168,-118 55,-38 109,-78 162,-118 106,-79 201,-167 273,-270 36,-51 63,-108 91,-170 27,-61 54,-125 84,-188 61,-125 135,-244 221,-352 -54,128 -106,253 -144,382 -41,127 -64,266 -139,398 -72,131 -178,234 -285,325 -26,25 -54,45 -82,67 -27,21 -55,43 -83,63 -56,40 -117,81 -163,117 -26,18 -48,40 -72,60 -20,22 -44,42 -62,67 -40,45 -70,97 -93,152 -23,54 -39,113 -44,174 -4,61 -2,124 6,188 17,127 58,255 103,383 22,64 47,128 68,195 10,33 20,66 26,101 3,18 5,36 4,54 0,18 -8,36 -20,48 16,-31 3,-64 -9,-95 -12,-30 -28,-60 -45,-90 l -100,-179 c -65,-122 -126,-250 -158,-393 -34,-140 -35,-298 18,-445 26,-72 65,-141 113,-200 23,-31 51,-56 76,-84 z"
     id="path1229" /></g><g
   inkscape:groupmode="layer"
   id="layer6"
   inkscape:label="Mane"
   style="display:inline"
   transform="translate(-3437.1877,-2055)"><path
     fill="#b47804"
     stroke="none"
     d="m 17911,10555 c 2,-359 101,-666 194,-874 l 54,1 c 10,55 69,197 334,604 -76,571 52,1248 223,1668 3,52 10,104 21,155 -399,-29 -581,-704 -705,-1162 -48,-180 -83,-307 -121,-392 z"
     id="path1250" /><path
     fill="#b47804"
     stroke="none"
     d="m 18647,10409 c 210,6 358,9 460,9 84,0 95,149 93,282 -42,44 -83,94 -124,149 -168,230 -310,543 -350,856 -103,-375 -147,-862 -79,-1296 z"
     id="path1257" /><path
     fill="#b47804"
     stroke="none"
     d="m 19356,10390 c 0,0 5,-5 11,-11 129,-130 220,-249 274,-356 -23,155 -38,306 -38,438 -100,11 -206,64 -312,152 18,-62 40,-136 65,-223 z"
     id="path1271" /><path
     fill="#b47804"
     stroke="none"
     d="m 19730,10140 c 74,-381 232,-833 324,-1080 162,262 361,869 330,1202 -247,208 -548,585 -681,903 -14,-101 -9,-326 0,-540 10,-250 27,-485 27,-485 z"
     id="path1278" /><path
     fill="#b47804"
     stroke="none"
     d="m 20192,8834 c 61,-82 99,-191 121,-308 335,494 543,876 539,1591 -64,-31 -162,-46 -297,25 -26,13 -53,31 -81,51 11,-414 -194,-1067 -363,-1275 33,-26 60,-55 81,-84 z"
     id="path1285" /><path
     fill="#b47804"
     stroke="none"
     d="m 20289,7981 c 542,262 1045,1217 963,2309 -37,160 -107,313 -232,430 39,-237 9,-431 -85,-539 18,-809 -229,-1293 -603,-1844 4,-133 -12,-262 -43,-356 z"
     id="path1292" /><path
     fill="#b47804"
     stroke="none"
     d="m 20290,7837 c 38,-56 92,-101 236,-176 594,310 975,1173 1074,1729 -14,-12 -28,-24 -43,-38 -33,-32 -112,-109 -195,-71 -49,22 -70,66 -77,134 -152,-777 -563,-1399 -995,-1578 z"
     id="path1299" /><path
     fill="#b47804"
     stroke="none"
     d="m 20747,7554 c 136,-62 210,-153 247,-270 374,196 512,421 597,736 0,20 0,42 1,64 18,466 236,1238 531,1402 -23,13 -61,28 -115,35 -54,7 -173,11 -308,-63 -67,-564 -413,-1510 -1036,-1865 26,-12 54,-25 83,-39 z"
     id="path1306" /><path
     fill="#b47804"
     stroke="none"
     d="m 20970,6564 c -6,-38 -12,-78 -18,-118 528,173 792,712 746,1210 -38,32 -66,82 -84,149 -100,-271 -264,-497 -594,-672 11,-159 -17,-350 -50,-569 z"
     id="path1313" /><path
     fill="#b47804"
     stroke="none"
     d="m 20900,5997 -2,-11 c -9,-27 -128,-377 -325,-703 914,-54 975,378 1149,937 76,244 154,495 300,692 5,29 12,56 24,82 84,186 332,216 480,234 3,0 7,1 11,1 -3,7 -5,13 -8,20 -64,151 -197,464 -360,504 -52,13 -107,-5 -169,-56 -78,-63 -150,-90 -214,-81 24,-533 -303,-1190 -861,-1371 -9,-80 -18,-162 -25,-248 z"
     id="path1320" /><path
     fill="#b47804"
     stroke="none"
     d="m 21803,6193 c -176,-567 -359,-1153 -1352,-1093 -53,-72 -110,-138 -170,-195 152,-105 766,-478 1409,18 l 5,9 c 22,38 67,82 134,149 269,265 769,759 367,1346 -88,130 -143,243 -165,342 -100,-168 -163,-367 -228,-576 z"
     id="path1327" /><path
     fill="#b47804"
     stroke="none"
     d="m 20128,4788 c -70,-41 -143,-69 -220,-76 372,-527 670,-855 938,-969 20,9 48,14 84,4 126,-34 612,53 906,207 150,79 12,557 -133,873 -695,-501 -1437,-118 -1575,-39 z"
     id="path1334" /><path
     fill="#b47804"
     stroke="none"
     d="m 20783,3675 c -330,139 -715,505 -1107,1065 -117,40 -217,116 -301,207 56,-349 240,-1326 624,-1854 59,-9 116,-40 171,-92 83,-80 208,-112 372,-95 217,23 433,125 536,194 -130,93 -243,301 -281,415 -16,46 -32,109 -14,160 z"
     id="path1341" /><path
     fill="#b47804"
     stroke="none"
     d="m 19178,5226 c -44,80 -78,155 -103,215 -25,-82 -63,-193 -115,-305 -6,-64 -13,-141 -13,-176 13,-704 -8,-1601 -278,-1961 243,31 496,-102 611,-323 41,-79 60,-162 57,-242 53,70 105,151 155,228 127,199 249,388 407,428 -430,638 -670,1848 -721,2136 z"
     id="path1348" /><path
     fill="#b47804"
     stroke="none"
     d="m 18536,4673 c -20,-5 -40,-7 -60,-10 -74,-94 -130,-261 -189,-438 -108,-323 -229,-685 -516,-807 -44,-153 -152,-330 -279,-442 237,-28 710,-35 1042,4 227,185 312,826 295,1923 -81,-114 -178,-204 -293,-230 z"
     id="path1355" /><path
     fill="#b47804"
     stroke="none"
     d="m 17793,3563 c 0,-12 -1,-25 -2,-38 216,131 321,445 415,727 52,159 45,304 91,408 -87,10 -174,34 -258,73 -36,-204 -231,-435 -471,-659 -122,-114 -247,-199 -367,-250 162,-12 314,-23 422,-46 104,-22 166,-100 170,-215 z"
     id="path1362" /><path
     fill="#b47804"
     stroke="none"
     d="m 16413,5286 c 195,-82 325,-136 325,-254 0,-50 -14,-152 -34,-293 -1,-6 -2,-12 -3,-19 45,-58 118,-96 210,-108 198,-26 510,71 758,422 -81,105 -160,242 -225,419 -340,-152 -757,-194 -1117,-131 29,-13 58,-25 86,-36 z"
     id="path1369" /><path
     fill="#b47804"
     stroke="none"
     d="m 15882,5581 c 372,-214 1028,-180 1511,31 -19,67 -35,138 -50,214 -209,-72 -707,-10 -1013,138 -54,26 -98,56 -132,89 -4,-10 -8,-19 -13,-29 -73,-153 -208,-308 -391,-354 27,-32 57,-61 88,-89 z"
     id="path1376" /><path
     fill="#b47804"
     stroke="none"
     d="m 15630,7409 c 38,-305 402,-669 528,-795 115,-115 121,-303 73,-470 27,-39 73,-74 136,-104 269,-130 748,-120 951,-54 -4,29 -8,57 -11,87 -3,32 -25,122 -50,225 -5,24 -11,47 -16,70 -485,-60 -1369,520 -1606,1042 -2,0 -3,-1 -5,-1 z"
     id="path1383" /><path
     fill="#b47804"
     stroke="none"
     d="m 17201,6541 c -41,182 -73,347 -82,473 -424,235 -734,428 -973,679 -43,-195 -263,-244 -423,-269 232,-459 1046,-933 1478,-883 z"
     id="path1390" /><path
     fill="#b47804"
     stroke="none"
     d="m 15778,8654 c -27,16 -54,31 -81,46 43,-141 89,-264 139,-373 39,-60 82,-117 123,-172 78,-104 148,-197 179,-292 231,-251 541,-424 991,-673 1,3 1,6 2,9 46,131 175,200 311,273 30,15 59,31 88,48 -419,18 -855,322 -1160,599 -102,92 -262,258 -308,421 -92,4 -186,58 -284,114 z"
     id="path1397" /><path
     fill="#b47804"
     stroke="none"
     d="m 16428,8181 c 325,-296 862,-574 1270,-545 46,42 85,91 114,152 -40,45 -74,90 -104,135 -282,-2 -810,312 -1138,623 -100,94 -185,193 -254,294 -2,-55 -9,-103 -27,-143 -33,-76 -81,-124 -142,-146 34,-104 134,-237 281,-370 z"
     id="path1404" /><path
     fill="#b47804"
     stroke="none"
     d="m 16352,9949 c -35,44 -74,92 -116,140 -89,-193 -27,-529 24,-807 18,-94 34,-181 44,-260 75,-140 184,-280 325,-413 307,-292 720,-504 981,-507 -46,107 -66,212 -67,311 -539,284 -913,775 -1038,1364 -53,49 -104,111 -153,172 z"
     id="path1411" /><path
     fill="#b47804"
     stroke="none"
     d="m 16889,9744 c -107,-80 -197,-82 -278,-43 137,-501 474,-869 949,-1123 22,97 62,184 117,257 -297,321 -488,837 -589,1266 -48,-161 -118,-296 -199,-357 z"
     id="path1418" /><path
     fill="#b47804"
     stroke="none"
     d="m 17619,10477 20,58 c 24,73 7,115 -7,140 -66,114 -299,192 -542,251 18,-41 34,-88 45,-144 30,-142 26,-316 -1,-482 87,-445 296,-1014 642,-1360 68,53 140,82 204,82 2,0 4,0 6,0 l 54,495 c -87,209 -193,537 -212,920 -12,-8 -24,-15 -37,-19 -42,-15 -85,-6 -123,23 z"
     id="path1551" /><path
     fill="#b47804"
     stroke="none"
     d="m 17929,4795 c -12,8 -25,15 -38,24 -41,30 -85,67 -129,111 -273,-389 -636,-432 -861,-403 -84,11 -157,42 -213,88 -33,-253 -78,-635 -35,-714 76,-16 151,-33 223,-49 12,-2 25,-3 37,-4 v 2 c 174,-10 392,94 598,286 217,203 382,466 418,659 z"
     id="path1558" /></g><g
   inkscape:groupmode="layer"
   id="layer7"
   inkscape:label="Teeth"
   transform="translate(-3437.1877,-2055)"
   style="display:inline"><path
     fill="#fff5ce"
     stroke="none"
     d="m 18913,9785 -64,-1 14,-94 42,1 z"
     id="path1425" /><path
     fill="#fff5ce"
     stroke="none"
     d="m 18879,8889 -13,-126 h 86 l -17,126 z"
     id="path1432" /><path
     fill="#fff5ce"
     stroke="none"
     d="m 18989,9788 -64,-1 14,-94 42,1 z"
     id="path1439" /><path
     fill="#fff5ce"
     stroke="none"
     d="m 18980,8890 -13,-126 h 86 l -17,126 z"
     id="path1446" /><path
     fill="#fff5ce"
     stroke="none"
     d="m 19064,9790 -64,-1 15,-94 42,1 z"
     id="path1453" /><path
     fill="#fff5ce"
     stroke="none"
     d="m 19197,8785 c 0,0 91,-42 114,23 0,0 -81,157 -88,171 -8,15 -26,-194 -26,-194 z"
     id="path1460" /><path
     fill="#fff5ce"
     stroke="none"
     d="m 19346,8798 c 0,-24 160,-19 174,45 0,0 -163,409 -174,412 -11,4 0,-432 0,-457 z"
     id="path1467" /><path
     fill="#fff5ce"
     stroke="none"
     d="m 19193,9762 c 0,-18 193,-217 201,-214 8,3 -13,181 -13,181 -12,48 -189,52 -188,33 z"
     id="path1474" /><path
     fill="#fff5ce"
     stroke="none"
     d="m 19171,9774 c -19,48 -87,15 -87,15 0,0 24,-146 29,-135 5,11 58,120 58,120 z"
     id="path1488" /><path
     fill="#fff5ce"
     stroke="none"
     d="m 19081,8890 -13,-126 h 85 l -16,126 z"
     id="path1495" /><path
     fill="#fff5ce"
     stroke="none"
     d="m 18788,9688 42,1 8,95 -64,-2 z"
     id="path1502" /><path
     fill="#fff5ce"
     stroke="none"
     d="m 18766,8763 h 85 l -16,126 h -56 z"
     id="path1509" /><path
     fill="#fff5ce"
     stroke="none"
     d="m 18570,8803 c 0,25 11,462 0,458 -10,-4 -174,-412 -174,-412 15,-65 174,-71 174,-46 z"
     id="path1523" /><path
     fill="#fff5ce"
     stroke="none"
     d="m 18474,9715 c 0,0 31,-174 39,-176 8,-3 132,193 132,211 -1,19 -161,14 -171,-35 z"
     id="path1530" /><path
     fill="#fff5ce"
     stroke="none"
     d="m 18755,9780 c 0,0 -70,30 -86,-19 0,0 59,-106 64,-117 6,-11 22,136 22,136 z"
     id="path1537" /><path
     fill="#fff5ce"
     stroke="none"
     d="m 18720,8790 c 0,0 -19,209 -26,194 -7,-15 -89,-171 -89,-171 23,-65 115,-23 115,-23 z"
     id="path1544" /></g>
</svg>
