<?xml version="1.0" encoding="UTF-8"?>
<!DOCTYPE svg PUBLIC "-//W3C//DTD SVG 1.1//EN" "http://www.w3.org/Graphics/SVG/1.1/DTD/svg11.dtd">
<svg version="1.2" width="588.61mm" height="586.53mm" viewBox="0 0 58861 58653" preserveAspectRatio="xMidYMid" fill-rule="evenodd" stroke-width="28.222" stroke-linejoin="round" xmlns="http://www.w3.org/2000/svg" xmlns:ooo="http://xml.openoffice.org/svg/export" xmlns:xlink="http://www.w3.org/1999/xlink" xmlns:presentation="http://sun.com/xmlns/staroffice/presentation" xmlns:smil="http://www.w3.org/2001/SMIL20/" xmlns:anim="urn:oasis:names:tc:opendocument:xmlns:animation:1.0" xml:space="preserve">
 <defs class="ClipPathGroup">
  <clipPath id="presentation_clip_path" clipPathUnits="userSpaceOnUse">
   <rect x="0" y="0" width="58861" height="58653"/>
  </clipPath>
  <clipPath id="presentation_clip_path_shrink" clipPathUnits="userSpaceOnUse">
   <rect x="58" y="58" width="58744" height="58536"/>
  </clipPath>
 </defs>
 <defs class="TextShapeIndex">
  <g ooo:slide="id1" ooo:id-list="id3 id4 id5 id6 id7 id8 id9 id10 id11 id12 id13 id14 id15 id16 id17 id18 id19 id20 id21 id22 id23 id24 id25 id26 id27 id28 id29 id30 id31 id32 id33 id34 id35 id36 id37 id38 id39 id40 id41 id42 id43 id44 id45 id46 id47 id48 id49 id50 id51 id52 id53 id54 id55 id56 id57 id58 id59"/>
 </defs>
 <defs class="EmbeddedBulletChars">
  <g id="bullet-char-template-57356" transform="scale(0.00048828125,-0.00048828125)">
   <path d="M 580,1141 L 1163,571 580,0 -4,571 580,1141 Z"/>
  </g>
  <g id="bullet-char-template-57354" transform="scale(0.00048828125,-0.00048828125)">
   <path d="M 8,1128 L 1137,1128 1137,0 8,0 8,1128 Z"/>
  </g>
  <g id="bullet-char-template-10146" transform="scale(0.00048828125,-0.00048828125)">
   <path d="M 174,0 L 602,739 174,1481 1456,739 174,0 Z M 1358,739 L 309,1346 659,739 1358,739 Z"/>
  </g>
  <g id="bullet-char-template-10132" transform="scale(0.00048828125,-0.00048828125)">
   <path d="M 2015,739 L 1276,0 717,0 1260,543 174,543 174,936 1260,936 717,1481 1274,1481 2015,739 Z"/>
  </g>
  <g id="bullet-char-template-10007" transform="scale(0.00048828125,-0.00048828125)">
   <path d="M 0,-2 C -7,14 -16,27 -25,37 L 356,567 C 262,823 215,952 215,954 215,979 228,992 255,992 264,992 276,990 289,987 310,991 331,999 354,1012 L 381,999 492,748 772,1049 836,1024 860,1049 C 881,1039 901,1025 922,1006 886,937 835,863 770,784 769,783 710,716 594,584 L 774,223 C 774,196 753,168 711,139 L 727,119 C 717,90 699,76 672,76 641,76 570,178 457,381 L 164,-76 C 142,-110 111,-127 72,-127 30,-127 9,-110 8,-76 1,-67 -2,-52 -2,-32 -2,-23 -1,-13 0,-2 Z"/>
  </g>
  <g id="bullet-char-template-10004" transform="scale(0.00048828125,-0.00048828125)">
   <path d="M 285,-33 C 182,-33 111,30 74,156 52,228 41,333 41,471 41,549 55,616 82,672 116,743 169,778 240,778 293,778 328,747 346,684 L 369,508 C 377,444 397,411 428,410 L 1163,1116 C 1174,1127 1196,1133 1229,1133 1271,1133 1292,1118 1292,1087 L 1292,965 C 1292,929 1282,901 1262,881 L 442,47 C 390,-6 338,-33 285,-33 Z"/>
  </g>
  <g id="bullet-char-template-9679" transform="scale(0.00048828125,-0.00048828125)">
   <path d="M 813,0 C 632,0 489,54 383,161 276,268 223,411 223,592 223,773 276,916 383,1023 489,1130 632,1184 813,1184 992,1184 1136,1130 1245,1023 1353,916 1407,772 1407,592 1407,412 1353,268 1245,161 1136,54 992,0 813,0 Z"/>
  </g>
  <g id="bullet-char-template-8226" transform="scale(0.00048828125,-0.00048828125)">
   <path d="M 346,457 C 273,457 209,483 155,535 101,586 74,649 74,723 74,796 101,859 155,911 209,963 273,989 346,989 419,989 480,963 531,910 582,859 608,796 608,723 608,648 583,586 532,535 482,483 420,457 346,457 Z"/>
  </g>
  <g id="bullet-char-template-8211" transform="scale(0.00048828125,-0.00048828125)">
   <path d="M -4,459 L 1135,459 1135,606 -4,606 -4,459 Z"/>
  </g>
  <g id="bullet-char-template-61548" transform="scale(0.00048828125,-0.00048828125)">
   <path d="M 173,740 C 173,903 231,1043 346,1159 462,1274 601,1332 765,1332 928,1332 1067,1274 1183,1159 1299,1043 1357,903 1357,740 1357,577 1299,437 1183,322 1067,206 928,148 765,148 601,148 462,206 346,322 231,437 173,577 173,740 Z"/>
  </g>
 </defs>
 <g>
  <g id="id2" class="Master_Slide">
   <g id="bg-id2" class="Background"/>
   <g id="bo-id2" class="BackgroundObjects"/>
  </g>
 </g>
 <g class="SlideGroup">
  <g>
   <g id="container-id1">
    <g id="id1" class="Slide" clip-path="url(#presentation_clip_path)">
     <g class="Page">
      <g class="com.sun.star.drawing.ClosedBezierShape">
       <g id="id3">
        <rect class="BoundingBox" stroke="none" fill="none" x="0" y="347" width="58860" height="58305"/>
        <path fill="rgb(0,0,0)" stroke="none" d="M 18935,58622 C 18683,58608 18301,58595 18085,58593 L 17694,58589 17582,58465 17469,58341 17594,58086 C 17765,57738 17915,57525 18053,57435 18189,57345 19119,57053 19570,56958 20200,56825 20721,56565 21264,56114 21527,55895 21748,55745 21951,55648 22116,55569 22259,55496 22269,55484 22279,55472 22338,55442 22401,55416 22506,55374 22516,55356 22516,55218 22516,55047 22563,54798 22657,54461 22736,54184 22764,53825 22769,53033 22771,52558 22759,52390 22711,52226 22666,52073 22652,51921 22660,51644 22666,51423 22653,51230 22630,51175 22588,51075 22358,50828 22307,50828 22276,50828 22127,50608 21990,50359 21929,50249 21916,50163 21914,49865 21911,49383 21877,49202 21755,49022 21698,48938 21624,48791 21591,48694 21520,48489 21508,48025 21568,47812 21597,47706 21596,47595 21564,47371 21523,47086 21498,46976 21372,46524 21342,46417 21292,46191 21260,46022 21229,45852 21189,45722 21172,45733 21154,45743 21140,45675 21140,45582 21140,45488 21118,45380 21091,45341 21062,45299 21044,45183 21045,45042 21046,44888 21021,44745 20968,44605 20925,44490 20844,44125 20787,43793 20661,43054 20585,42778 20386,42335 20301,42146 20205,41913 20172,41817 20120,41663 20051,41253 20048,41083 20047,41040 20018,41021 19957,41021 19841,41021 19814,40943 19881,40800 19910,40737 19951,40549 19971,40382 19991,40215 20047,39977 20096,39853 20145,39729 20209,39516 20238,39380 20266,39245 20314,39022 20344,38887 20428,38502 20425,38453 20244,37546 20232,37488 20208,36361 20190,35041 20171,33722 20137,32277 20114,31829 20077,31102 20079,30995 20130,30819 20208,30550 20202,30399 20099,30067 19993,29727 19993,29728 20082,29627 20147,29553 20152,29496 20151,28943 20150,28161 20097,27270 20041,27083 20011,26983 19909,26841 19727,26645 19453,26349 19391,26243 19176,25712 19000,25277 18953,25067 18953,24708 18952,24312 18919,24189 18749,23965 18574,23734 18299,23550 17935,23420 17773,23362 17591,23283 17529,23246 17468,23208 17321,23144 17203,23105 17084,23065 16816,22936 16608,22818 16135,22549 16129,22547 15695,22482 15229,22412 14983,22348 14601,22196 14429,22127 14176,22040 14038,22002 13900,21964 13398,21773 12922,21578 11078,20824 10887,20737 10483,20470 10356,20386 10118,20254 9954,20178 9791,20101 9483,19957 9269,19857 8904,19686 8652,19505 8652,19413 8652,19391 8624,19349 8590,19321 8527,19267 8040,19044 7987,19044 7905,19044 7403,20222 7225,20833 7158,21062 7038,21448 6958,21690 6878,21933 6782,22230 6744,22351 6706,22472 6580,22726 6463,22916 6346,23105 6235,23318 6216,23390 6197,23461 6142,23890 6094,24342 5988,25330 5962,25469 5808,25841 5743,26000 5675,26232 5657,26356 5639,26481 5593,26645 5555,26721 5516,26796 5459,26945 5427,27052 5357,27289 5152,27605 5035,27659 4957,27694 4502,28317 4160,28856 4091,28965 3935,29290 3814,29579 3609,30069 3594,30121 3592,30385 3590,30659 3594,30674 3723,30850 3936,31141 4061,31463 4209,32105 4286,32436 4348,32740 4348,32780 4348,32821 4282,33092 4201,33383 4025,34013 3949,34122 3653,34161 3490,34183 3472,34196 3417,34320 3334,34507 3062,34801 2890,34888 2757,34956 2712,34959 2211,34936 L 1674,34911 1396,34641 C 1243,34493 1043,34302 951,34217 812,34087 785,34042 786,33935 787,33696 882,33266 960,33138 1024,33036 1031,33001 996,32959 962,32918 965,32890 1010,32820 1042,32772 1067,32703 1067,32665 1067,32628 1153,32425 1257,32214 L 1446,31831 1491,31226 C 1516,30893 1528,30589 1518,30552 1508,30514 1512,30056 1528,29535 L 1555,28587 1680,28192 C 1784,27862 1814,27692 1860,27171 1932,26351 2079,25699 2254,25421 2411,25172 2556,24788 2636,24406 2806,23602 3008,23103 3307,22753 3489,22539 3506,22492 3625,21831 3747,21161 3800,20956 3945,20605 4083,20272 4105,19962 4013,19658 3960,19481 3919,19121 3855,18251 3834,17979 3793,17653 3762,17527 3726,17380 3706,17135 3706,16839 3706,16452 3723,16305 3817,15887 3951,15291 4031,15120 4334,14776 4462,14630 4647,14392 4745,14247 4843,14101 5022,13855 5142,13700 5262,13545 5453,13255 5567,13056 5825,12606 5981,12397 6438,11888 6883,11394 6912,11350 6961,11107 6983,11000 7020,10881 7045,10842 7128,10709 7209,10291 7229,9885 7244,9584 7240,9557 7166,9488 7062,9391 7000,9394 6960,9497 6919,9606 6758,9731 6659,9731 6617,9731 6554,9761 6521,9798 6487,9835 6385,9900 6295,9942 6057,10052 5959,10110 5918,10166 5887,10208 5509,10401 5456,10401 5412,10401 5126,10546 5106,10578 5076,10627 4850,10719 4761,10719 4694,10719 4537,10677 4366,10612 4327,10597 4211,10560 4107,10529 3882,10462 3921,10489 2796,9629 1666,8765 1496,8626 1378,8466 1225,8259 866,7511 765,7191 731,7084 692,6981 678,6962 664,6942 640,6841 626,6736 591,6472 524,6329 386,6224 198,6080 8,5608 0,5304 L 0,5262 C 1,5236 3,5212 7,5190 79,4784 130,4592 191,4505 227,4453 256,4384 256,4351 256,4319 279,4250 308,4198 336,4147 382,4023 411,3923 439,3823 534,3641 623,3519 712,3397 785,3273 785,3244 785,3171 1488,2254 1597,2185 1708,2115 1831,2005 2069,1765 2188,1645 2360,1525 2552,1428 2715,1346 2920,1211 3008,1129 3095,1047 3198,950 3237,914 3338,821 3803,600 3955,573 4026,560 4112,535 4146,517 4238,470 5197,347 5474,347 5696,347 5724,357 5903,490 6155,677 6431,992 6536,1211 6583,1310 6627,1477 6635,1590 6649,1790 6652,1794 6778,1826 6848,1844 6976,1870 7063,1883 7149,1897 7260,1936 7310,1971 7359,2005 7503,2052 7629,2076 7755,2099 7890,2135 7929,2156 8100,2247 8365,2474 8383,2546 8393,2589 8451,2697 8510,2786 8609,2936 8633,2952 8837,2994 8958,3019 9101,3061 9155,3088 9209,3115 9306,3133 9372,3128 9438,3124 9517,3141 9546,3165 9576,3190 9725,3217 9876,3225 10357,3249 10490,3275 10609,3365 10671,3413 10757,3452 10799,3452 10918,3452 11023,3648 10996,3822 10931,4254 10918,4203 11145,4378 11427,4596 11477,4659 11499,4825 11513,4930 11535,4969 11579,4969 11652,4969 11756,5077 11756,5152 11756,5252 11861,5460 11930,5497 11968,5517 12054,5533 12121,5533 12210,5533 12291,5571 12417,5670 12658,5860 12727,6077 12692,6535 12679,6714 12654,6883 12637,6910 12621,6937 12499,7032 12367,7120 12090,7306 12062,7380 12263,7396 12390,7407 12398,7414 12380,7503 12368,7565 12384,7628 12425,7683 12478,7753 12517,7766 12651,7761 13071,7745 14100,7484 14369,7324 14455,7274 14741,7059 15004,6848 15638,6340 15681,6315 16012,6274 16165,6255 16464,6189 16678,6129 17031,6028 17095,6020 17401,6040 17790,6065 18059,6130 18208,6236 18266,6277 18684,6436 19136,6589 19588,6742 20099,6925 20270,6997 20641,7152 21235,7307 21748,7383 22271,7461 23087,7453 24117,7361 L 24995,7282 25193,7397 C 25544,7600 26021,7823 26202,7868 26408,7919 26440,7942 26951,8408 27164,8602 27421,8830 27522,8915 27762,9115 27857,9265 27987,9646 28086,9938 28231,10650 28231,10846 28231,10990 28023,11160 27543,11408 L 27084,11646 26407,11623 C 25806,11604 25696,11609 25438,11671 25279,11709 25057,11750 24946,11763 L 24744,11786 24033,11429 C 23641,11232 23284,11072 23240,11072 23195,11072 23090,11098 23005,11131 22881,11179 22726,11190 22216,11190 21600,11190 21571,11187 21235,11079 20541,10855 19976,10776 19976,10902 19976,10924 20023,11015 20081,11105 20226,11331 20414,11748 20503,12042 20544,12178 20657,12432 20754,12606 21027,13099 21143,13360 21184,13574 21271,14032 21259,14013 21637,14325 21832,14486 22077,14683 22184,14765 22643,15116 23390,15237 23904,15044 24349,14876 24835,14854 25320,14978 25576,15044 25773,15045 27049,14990 28045,14948 28430,14910 28557,14842 28635,14800 29445,14541 29870,14423 30025,14379 30418,14227 30742,14084 31066,13940 31341,13823 31353,13823 31365,13823 32005,13520 32775,13148 34256,12434 34804,12185 35462,11929 35685,11842 36004,11717 36171,11651 36339,11586 36720,11461 37018,11374 38230,11019 38969,10678 39977,10009 40614,9585 40698,9512 41064,9057 41357,8692 41539,8535 42152,8120 42869,7634 43644,7239 44015,7171 44170,7142 44424,7062 44580,6992 44736,6923 45010,6804 45189,6728 45606,6551 46959,6204 47235,6203 47347,6202 47635,6163 47874,6116 48361,6020 48374,6012 48850,5573 49263,5192 49313,5159 49771,4973 50749,4576 51330,4434 52007,4426 52321,4422 52457,4465 52633,4626 L 52713,4699 53265,4423 C 53732,4189 53892,4086 54310,3749 55091,3121 55193,3082 56239,3026 L 56925,2989 57244,3209 57563,3429 57914,3456 C 58321,3488 58396,3528 58541,3790 58668,4019 58701,4193 58765,4969 58795,5328 58832,5732 58847,5868 58854,5934 58858,5991 58859,6040 L 58859,6066 C 58856,6239 58801,6309 58654,6381 58500,6456 58314,6454 58267,6377 58228,6314 57783,6340 57651,6413 57232,6647 57274,6639 56523,6615 55763,6590 55225,6535 55152,6475 55116,6446 55096,6451 55071,6496 55052,6529 55007,6556 54971,6556 54935,6556 54876,6592 54840,6636 54805,6680 54671,6761 54542,6815 54189,6964 53770,7213 53612,7368 53534,7444 53423,7523 53364,7544 53259,7580 53256,7588 53198,7977 53130,8436 52926,9007 52742,9255 52677,9343 52411,9709 52150,10069 51575,10861 50998,11591 50757,11831 50651,11936 50456,12071 50278,12163 50113,12248 49874,12384 49745,12466 49617,12548 49340,12715 49128,12837 48706,13080 48398,13280 48072,13522 47792,13730 47312,13998 47009,14115 46169,14440 45993,14517 45681,14692 45491,14800 45211,14982 45058,15097 44670,15389 43907,15837 43108,16241 42556,16521 42241,16714 41424,17274 39874,18337 38959,19039 37808,20050 37517,20306 37151,20618 36994,20743 36669,21005 35426,21836 35246,21912 35181,21940 35015,22049 34880,22155 34523,22434 34243,22617 33776,22878 33182,23210 32705,23529 32509,23727 32416,23822 32144,24108 31905,24364 31541,24753 31446,24879 31317,25143 31232,25316 31002,25714 30806,26026 30373,26717 30226,27049 30116,27589 30069,27816 29990,28085 29938,28186 29887,28288 29824,28501 29797,28666 29768,28846 29682,29129 29576,29392 29370,29902 29289,30163 29289,30317 29289,30379 29265,30475 29236,30531 29208,30586 29184,30669 29184,30714 29184,30759 29137,30902 29081,31032 28835,31596 28560,32583 28441,33325 28401,33570 28347,33859 28319,33965 28261,34191 28212,34858 28161,36100 28057,38611 28045,38813 27964,39314 27952,39394 27968,40053 28002,40778 28038,41582 28055,42393 28045,42855 28018,44017 27923,45437 27845,45854 27797,46105 27763,46524 27736,47159 27692,48220 27663,48461 27541,48766 27494,48884 27455,49021 27455,49070 27455,49119 27415,49202 27367,49255 27311,49315 27278,49392 27278,49463 27277,49805 26830,51147 26571,51586 26471,51756 26348,51984 26299,52093 26157,52405 25933,52766 25822,52859 25760,52912 25676,52944 25604,52944 25514,52944 25482,52962 25464,53024 25452,53068 25425,53635 25404,54284 25377,55147 25378,55468 25406,55478 25517,55515 25557,55604 25535,55764 25480,56161 25447,56712 25446,57266 25443,57893 25411,58109 25310,58160 25277,58177 25099,58201 24915,58213 24730,58225 24286,58258 23927,58286 23568,58314 22965,58347 22586,58359 21664,58388 21193,58433 20540,58556 20196,58621 20004,58649 19716,58651 L 19649,58651 C 19468,58650 19247,58639 18935,58622 Z"/>
       </g>
      </g>
      <g class="com.sun.star.drawing.ClosedBezierShape">
       <g id="id4">
        <rect class="BoundingBox" stroke="none" fill="none" x="17859" y="55712" width="7383" height="2626"/>
        <path fill="rgb(255,255,0)" stroke="none" d="M 21947,58094 C 22405,58075 23098,58041 23486,58018 23874,57996 24401,57971 24656,57963 L 25121,57948 25140,57695 C 25151,57556 25168,57133 25179,56754 25190,56376 25208,55998 25220,55914 L 25241,55761 25097,55834 C 24927,55921 24616,55929 23768,55868 23477,55847 23144,55826 23027,55822 22911,55818 22752,55787 22675,55754 22504,55680 22454,55691 22029,55895 21815,55997 21636,56114 21517,56228 21198,56536 20605,56900 20144,57071 20042,57109 19817,57173 19643,57213 19470,57253 19258,57317 19173,57355 19087,57393 18883,57455 18720,57494 18386,57573 18194,57661 18086,57783 17969,57914 17859,58114 17859,58196 17859,58264 17880,58272 18080,58276 18201,58278 18483,58292 18706,58305 18929,58319 19366,58332 19677,58336 20198,58341 20277,58333 20678,58235 21062,58142 21213,58125 21947,58094 Z"/>
       </g>
      </g>
      <g class="com.sun.star.drawing.ClosedBezierShape">
       <g id="id5">
        <rect class="BoundingBox" stroke="none" fill="none" x="22768" y="52733" width="2395" height="2883"/>
        <path fill="rgb(42,96,153)" stroke="none" d="M 24983,55572 C 25067,55488 25161,54372 25161,53452 L 25162,52884 24694,52863 C 24437,52851 24052,52817 23839,52788 23625,52758 23352,52734 23230,52734 L 23010,52733 23010,53173 C 23010,53416 22995,53681 22976,53764 22958,53847 22916,54200 22884,54550 22852,54899 22812,55231 22795,55287 22746,55443 22751,55449 22920,55449 23007,55449 23151,55474 23240,55504 23534,55604 24898,55657 24983,55572 Z"/>
       </g>
      </g>
      <g class="com.sun.star.drawing.ClosedBezierShape">
       <g id="id6">
        <rect class="BoundingBox" stroke="none" fill="none" x="19226" y="4738" width="33858" height="47900"/>
        <path fill="rgb(255,0,0)" stroke="none" d="M 25744,52553 C 25756,52516 25802,52442 25846,52389 25890,52335 25947,52228 25972,52151 26034,51958 26130,51771 26313,51491 26489,51220 26853,50197 26943,49720 27023,49299 27058,49183 27207,48849 27407,48402 27446,48150 27471,47141 27486,46570 27517,46092 27561,45783 27698,44830 27711,44456 27719,41427 27726,38615 27761,37261 27846,36594 27865,36438 27895,35891 27912,35377 27941,34525 27957,34366 28089,33596 28168,33130 28280,32584 28338,32383 28395,32181 28442,31996 28442,31971 28442,31927 28693,31237 28810,30960 28840,30888 28919,30603 28986,30325 29052,30048 29187,29617 29285,29367 29383,29117 29482,28815 29504,28696 29525,28578 29597,28335 29662,28156 29728,27978 29814,27679 29855,27492 29965,26981 30174,26518 30607,25824 30748,25597 30933,25285 31017,25130 31101,24974 31218,24784 31277,24706 31390,24557 31914,23979 32269,23611 32488,23385 33263,22853 33786,22570 34135,22382 34408,22202 34774,21919 34929,21799 35113,21672 35180,21638 35248,21604 35462,21469 35656,21339 35850,21208 36120,21037 36255,20958 36554,20783 36995,20431 37702,19802 37993,19544 38429,19178 38672,18989 38915,18801 39192,18580 39289,18499 39537,18290 40046,17918 40665,17492 40956,17292 41431,16961 41721,16756 42104,16485 42464,16273 43045,15975 44004,15484 44464,15213 44932,14865 45244,14633 45620,14407 46116,14154 46203,14109 46430,14024 46621,13965 47166,13795 47668,13523 48256,13079 48395,12974 48641,12810 48802,12715 48964,12620 49303,12419 49555,12269 49807,12119 50079,11964 50159,11924 50488,11759 50826,11404 51458,10560 52358,9358 52677,8910 52677,8847 52677,8810 52716,8677 52763,8551 52811,8426 52866,8202 52887,8055 52921,7811 52963,7692 53070,7542 53101,7499 53077,7421 52964,7183 52884,7015 52818,6869 52818,6857 52818,6846 52691,6565 52535,6234 52374,5891 52242,5561 52229,5468 52213,5348 52178,5277 52098,5202 52004,5113 51989,5075 51989,4919 L 51989,4739 51707,4744 C 51330,4750 50754,4886 50152,5110 49525,5345 49441,5395 48965,5815 48748,6006 48499,6198 48412,6242 48207,6345 47426,6521 47177,6521 46973,6521 45987,6728 45644,6843 45530,6881 45260,6993 45044,7091 44541,7319 44436,7356 44056,7439 43812,7492 43627,7568 43227,7777 42643,8083 42489,8178 42041,8509 41540,8879 41464,8948 41265,9217 40974,9612 40741,9849 40536,9959 40432,10015 40171,10186 39955,10338 39548,10624 38553,11152 38191,11273 38077,11311 37841,11391 37667,11451 37492,11511 37135,11626 36873,11707 36253,11898 34819,12472 33927,12887 33539,13068 33182,13227 33133,13242 33085,13257 32905,13347 32735,13444 32349,13660 31148,14247 31088,14247 31064,14247 30851,14332 30614,14437 30376,14542 30072,14656 29938,14689 29804,14722 29448,14834 29147,14938 28846,15041 28497,15142 28371,15161 28245,15179 27559,15222 26847,15257 L 25553,15320 25238,15242 C 24768,15125 24383,15150 23941,15327 L 23714,15418 23714,15794 C 23713,16250 23663,16476 23450,16981 23359,17194 23257,17450 23222,17549 23187,17648 23062,17870 22945,18043 22738,18347 22727,18375 22571,18998 22483,19351 22348,19784 22271,19961 22139,20266 21788,20836 21424,21337 21332,21463 21184,21717 21095,21902 21006,22086 20801,22446 20640,22702 20478,22957 20267,23304 20171,23472 19970,23824 19560,24272 19365,24353 19246,24403 19235,24420 19230,24557 19215,24966 19243,25134 19395,25523 19611,26081 19666,26176 19963,26510 20109,26673 20258,26876 20296,26961 20405,27208 20433,27681 20434,29275 20434,30455 20423,30814 20384,30961 20346,31103 20341,31219 20365,31438 20382,31596 20412,32488 20433,33420 20513,37047 20550,37783 20669,38193 20705,38318 20717,38443 20703,38548 20670,38794 20475,39600 20391,39839 20294,40115 20278,40402 20327,40966 20380,41575 20434,41791 20647,42257 20859,42721 20960,43084 21104,43907 21163,44243 21235,44575 21264,44644 21295,44717 21318,44888 21319,45056 21321,45213 21336,45422 21353,45519 21431,45955 21495,46249 21583,46577 21749,47189 21823,47651 21776,47775 21722,47915 21731,48537 21789,48698 21816,48773 21895,48929 21965,49044 L 22093,49254 22093,49697 C 22093,50111 22099,50154 22193,50353 22249,50470 22348,50610 22414,50664 22624,50837 22637,50851 22763,51060 L 22886,51265 22875,51708 C 22862,52204 22908,52389 23052,52428 23097,52440 23284,52450 23468,52451 23652,52451 23914,52477 24049,52508 24223,52547 24449,52563 24808,52559 25157,52555 25370,52569 25478,52602 25660,52658 25714,52648 25744,52553 Z"/>
       </g>
      </g>
      <g class="com.sun.star.drawing.ClosedBezierShape">
       <g id="id7">
        <rect class="BoundingBox" stroke="none" fill="none" x="24775" y="46983" width="2296" height="4306"/>
        <path fill="rgb(0,0,0)" stroke="none" d="M 25223,50093 C 25348,49886 25595,49447 25770,49117 26673,47418 26919,46983 26982,46983 27159,46982 27078,47238 26654,48023 26486,48333 26211,48850 26043,49170 25875,49490 25666,49863 25578,49999 25383,50299 25251,50557 25138,50859 25009,51202 24884,51350 24797,51263 24708,51174 24919,50593 25223,50093 Z"/>
       </g>
      </g>
      <g class="com.sun.star.drawing.ClosedBezierShape">
       <g id="id8">
        <rect class="BoundingBox" stroke="none" fill="none" x="23865" y="41233" width="2603" height="7901"/>
        <path fill="rgb(0,0,0)" stroke="none" d="M 23868,49080 C 23857,49049 23904,48902 23974,48753 24043,48604 24140,48361 24189,48213 24315,47836 24389,47671 24630,47235 25019,46530 25445,45414 25550,44825 25572,44702 25619,44482 25656,44337 25749,43964 26001,42589 26097,41933 26180,41369 26221,41233 26307,41233 26379,41233 26467,41333 26467,41414 26467,41502 26187,43175 26167,43208 26159,43221 26112,43476 26062,43775 25838,45128 25524,46082 24916,47254 24762,47550 24579,47953 24508,48149 24326,48657 24190,48964 24109,49055 24027,49147 23899,49160 23868,49080 Z"/>
       </g>
      </g>
      <g class="com.sun.star.drawing.ClosedBezierShape">
       <g id="id9">
        <rect class="BoundingBox" stroke="none" fill="none" x="21821" y="45542" width="1314" height="2641"/>
        <path fill="rgb(0,0,0)" stroke="none" d="M 21846,48129 C 21795,48068 21800,48060 22083,47727 22209,47578 22285,47448 22324,47315 22355,47208 22427,47020 22482,46896 22538,46773 22641,46477 22710,46237 22881,45648 22934,45530 23021,45543 23169,45566 23170,45647 23031,46141 22958,46400 22845,46739 22781,46894 22716,47050 22644,47240 22621,47318 22525,47635 22113,48182 21971,48182 21926,48182 21870,48158 21846,48129 Z"/>
       </g>
      </g>
      <g class="com.sun.star.drawing.ClosedBezierShape">
       <g id="id10">
        <rect class="BoundingBox" stroke="none" fill="none" x="23715" y="35161" width="4061" height="10340"/>
        <path fill="rgb(0,0,0)" stroke="none" d="M 24137,44351 C 24546,43512 24659,43286 25231,42167 25636,41374 25824,40908 25969,40333 26159,39580 26305,39203 26593,38728 26745,38475 26924,37932 27084,37229 27155,36918 27267,36482 27333,36258 27399,36035 27469,35729 27489,35577 27539,35196 27610,35087 27730,35207 27806,35283 27781,35762 27685,36087 27563,36497 27367,37276 27295,37634 27217,38025 27195,38080 26763,38976 26545,39426 26375,39828 26345,39964 26236,40445 26017,41157 25905,41392 25841,41528 25719,41794 25635,41985 25550,42176 25367,42531 25228,42774 25089,43018 24897,43393 24802,43609 24590,44091 24089,45106 23952,45333 23849,45503 23766,45546 23728,45447 23683,45331 23758,45132 24137,44351 Z"/>
       </g>
      </g>
      <g class="com.sun.star.drawing.ClosedBezierShape">
       <g id="id11">
        <rect class="BoundingBox" stroke="none" fill="none" x="21762" y="29908" width="6859" height="14357"/>
        <path fill="rgb(0,0,0)" stroke="none" d="M 23515,43279 C 23750,42602 24155,41579 24297,41303 24342,41216 24451,40938 24539,40686 24627,40433 24804,39973 24933,39663 25277,38835 25867,37297 25867,37230 25867,37198 25890,37128 25918,37074 25946,37020 26034,36781 26114,36542 26194,36303 26307,36003 26365,35875 26460,35666 26668,35004 26727,34724 L 26749,34618 26634,34756 C 26571,34832 26453,34973 26370,35071 26288,35168 26146,35392 26056,35568 25740,36181 24564,38070 24209,38534 24105,38670 23906,38932 23766,39116 23627,39300 23469,39491 23416,39539 23362,39588 23212,39754 23081,39910 22951,40065 22725,40322 22579,40481 22356,40723 22290,40825 22166,41120 22028,41448 21918,41621 21849,41621 21832,41621 21800,41598 21777,41570 21744,41531 21762,41444 21861,41160 21997,40767 22030,40716 22410,40298 22552,40142 22743,39915 22837,39792 22930,39670 23080,39504 23171,39424 23374,39245 24129,38237 24524,37617 25084,36736 25662,35780 25815,35479 25964,35184 26187,34878 26619,34374 26811,34150 26995,33835 26996,33728 26996,33704 27053,33633 27123,33569 27304,33406 27471,33050 27612,32529 27747,32031 27863,31726 28023,31442 28166,31189 28289,30779 28355,30335 28385,30133 28418,29954 28428,29938 28460,29888 28575,29906 28598,29964 28662,30132 28571,30853 28445,31173 28407,31269 28328,31426 28269,31521 28128,31750 27992,32116 27933,32427 27880,32702 27735,33090 27541,33475 27330,33895 27116,34449 26925,35077 26824,35407 26681,35827 26608,36012 26535,36196 26352,36696 26202,37123 25918,37933 25602,38754 24879,40562 24642,41154 24433,41694 24414,41762 24394,41830 24364,41903 24347,41924 24329,41946 24285,42049 24248,42154 24211,42258 24110,42495 24023,42679 23936,42863 23839,43123 23807,43256 23743,43516 23540,44048 23451,44183 23393,44272 23341,44285 23258,44232 23196,44193 23192,44207 23515,43279 Z"/>
       </g>
      </g>
      <g class="com.sun.star.drawing.ClosedBezierShape">
       <g id="id12">
        <rect class="BoundingBox" stroke="none" fill="none" x="21734" y="28396" width="6701" height="10643"/>
        <path fill="rgb(0,0,0)" stroke="none" d="M 22988,37788 C 23543,37349 24520,36273 24809,35782 24857,35700 24974,35518 25069,35378 25253,35103 25635,34305 25989,33454 26284,32745 26669,31949 26860,31651 27123,31242 27202,31093 27566,30320 27941,29523 28096,29112 28160,28744 28218,28407 28227,28386 28312,28398 28498,28425 28467,28898 28242,29468 28071,29899 27418,31240 27247,31512 27050,31824 26466,33003 26311,33401 26139,33843 25646,34906 25468,35218 25075,35906 24507,36651 23856,37330 23538,37662 23421,37766 22798,38270 22653,38387 22386,38603 22206,38748 21860,39028 21804,39063 21764,39023 21642,38900 21863,38677 22988,37788 Z"/>
       </g>
      </g>
      <g class="com.sun.star.drawing.ClosedBezierShape">
       <g id="id13">
        <rect class="BoundingBox" stroke="none" fill="none" x="21629" y="32070" width="4762" height="4347"/>
        <path fill="rgb(0,0,0)" stroke="none" d="M 21907,36060 C 22495,35626 22573,35565 22791,35361 23070,35102 23572,34523 23891,34094 24145,33752 24351,33545 24862,33116 25482,32596 26261,32046 26341,32072 26362,32079 26383,32119 26389,32161 26403,32256 26311,32343 25832,32688 24911,33350 24516,33712 23962,34407 23161,35413 22799,35771 22177,36177 21869,36378 21747,36435 21678,36410 21568,36371 21645,36253 21907,36060 Z"/>
       </g>
      </g>
      <g class="com.sun.star.drawing.ClosedBezierShape">
       <g id="id14">
        <rect class="BoundingBox" stroke="none" fill="none" x="21635" y="26206" width="8183" height="5865"/>
        <path fill="rgb(0,0,0)" stroke="none" d="M 22056,31814 C 22085,31800 22181,31755 22268,31714 22413,31646 22704,31475 23538,30969 23950,30719 24328,30410 24495,30186 24805,29770 25164,29425 25946,28794 26397,28430 26859,28068 26972,27989 27178,27847 27178,27846 27072,27835 26944,27822 26414,27994 26105,28149 25984,28210 25741,28348 25566,28456 25392,28564 25130,28695 24984,28748 24839,28800 24632,28876 24526,28916 24419,28956 24181,29029 23997,29079 23539,29204 22891,29529 22444,29857 21935,30232 21816,30304 21727,30291 21617,30275 21603,30105 21707,30049 21751,30025 21950,29889 22149,29745 22349,29601 22620,29418 22751,29338 23050,29157 23712,28860 23924,28812 24198,28751 25062,28429 25284,28306 25401,28241 25618,28118 25767,28031 26138,27818 26739,27583 27063,27527 27210,27501 27389,27455 27461,27425 27534,27394 27626,27370 27667,27370 27708,27370 27998,27200 28312,26993 29238,26382 29556,26206 29733,26206 29843,26206 29845,26309 29738,26406 29694,26446 29547,26538 29412,26612 29028,26819 27985,27523 27789,27706 27692,27797 27475,27964 27307,28078 26998,28287 25985,29077 25531,29464 25396,29580 25134,29842 24951,30048 24293,30783 23970,31045 23185,31479 22981,31592 22743,31735 22656,31798 22342,32023 22085,32121 22020,32043 21968,31980 21989,31846 22056,31814 Z"/>
       </g>
      </g>
      <g class="com.sun.star.drawing.ClosedBezierShape">
       <g id="id15">
        <rect class="BoundingBox" stroke="none" fill="none" x="22030" y="26288" width="4080" height="1888"/>
        <path fill="rgb(0,0,0)" stroke="none" d="M 22656,27702 C 22821,27652 23011,27589 23079,27563 23147,27536 23258,27504 23326,27491 23465,27464 23991,27254 24596,26984 25166,26729 25419,26599 25681,26424 25918,26266 26025,26249 26092,26356 26124,26407 26112,26434 26025,26506 25802,26691 25399,26911 24710,27223 23810,27632 23751,27655 23122,27842 22836,27927 22504,28038 22384,28088 22125,28197 22157,28193 22072,28130 21927,28023 22161,27852 22656,27702 Z"/>
       </g>
      </g>
      <g class="com.sun.star.drawing.ClosedBezierShape">
       <g id="id16">
        <rect class="BoundingBox" stroke="none" fill="none" x="26785" y="24565" width="2858" height="2343"/>
        <path fill="rgb(0,0,0)" stroke="none" d="M 26785,26758 C 26785,26745 26868,26693 26970,26641 27211,26520 27399,26369 28015,25805 28295,25549 28660,25232 28827,25100 28994,24968 29215,24788 29317,24699 29498,24544 29507,24541 29573,24601 29611,24635 29642,24681 29642,24704 29642,24763 29425,24958 29009,25273 28807,25426 28410,25772 28127,26042 27531,26610 27315,26782 27104,26856 26914,26924 26913,26924 26843,26846 26811,26810 26785,26771 26785,26758 Z"/>
       </g>
      </g>
      <g class="com.sun.star.drawing.ClosedBezierShape">
       <g id="id17">
        <rect class="BoundingBox" stroke="none" fill="none" x="25271" y="23336" width="4190" height="2627"/>
        <path fill="rgb(0,0,0)" stroke="none" d="M 26398,25890 C 26345,25791 26390,25710 26510,25686 26646,25659 27529,24836 27657,24617 27708,24530 27838,24364 27946,24250 28054,24135 28114,24051 28078,24064 27839,24152 27261,24273 26555,24384 26176,24443 25934,24503 25702,24594 25348,24734 25258,24732 25274,24586 25297,24394 26030,24144 26837,24054 27392,23992 28434,23660 28726,23452 28802,23398 28859,23384 28944,23400 29011,23413 29121,23400 29207,23369 29327,23327 29365,23325 29415,23362 29452,23389 29468,23431 29455,23464 29421,23553 29118,23730 28884,23797 28693,23852 28639,23892 28344,24194 28163,24378 27965,24616 27904,24723 27842,24830 27714,24988 27618,25076 27522,25163 27299,25371 27123,25539 26694,25946 26483,26048 26398,25890 Z"/>
       </g>
      </g>
      <g class="com.sun.star.drawing.ClosedBezierShape">
       <g id="id18">
        <rect class="BoundingBox" stroke="none" fill="none" x="22022" y="22974" width="2576" height="1714"/>
        <path fill="rgb(0,0,0)" stroke="none" d="M 23061,23976 C 22907,23852 22725,23713 22657,23666 22359,23462 22022,23163 22022,23103 22022,23068 22046,23019 22076,22994 22122,22957 22155,22968 22279,23061 22361,23123 22579,23283 22763,23418 22947,23554 23201,23744 23327,23841 23453,23938 23612,24036 23680,24058 23942,24142 24597,24474 24597,24522 24597,24567 24489,24691 24453,24687 24445,24686 24272,24617 24068,24534 23534,24316 23376,24228 23061,23976 Z"/>
       </g>
      </g>
      <g class="com.sun.star.drawing.ClosedBezierShape">
       <g id="id19">
        <rect class="BoundingBox" stroke="none" fill="none" x="31229" y="17118" width="3318" height="5199"/>
        <path fill="rgb(0,0,0)" stroke="none" d="M 31273,22301 C 31248,22291 31228,22256 31229,22224 31229,22022 32588,19806 32992,19349 33556,18713 34123,17805 34277,17293 34289,17252 34330,17190 34368,17156 34464,17069 34545,17140 34545,17310 34545,17620 33802,18829 33169,19551 32890,19870 32739,20084 32499,20503 32379,20713 32195,21017 32091,21178 31988,21339 31828,21611 31737,21782 31473,22277 31404,22354 31273,22301 Z"/>
       </g>
      </g>
      <g class="com.sun.star.drawing.ClosedBezierShape">
       <g id="id20">
        <rect class="BoundingBox" stroke="none" fill="none" x="25062" y="16155" width="2605" height="5525"/>
        <path fill="rgb(0,0,0)" stroke="none" d="M 25634,19545 L 25610,18723 25712,18617 25814,18510 25633,17974 C 25533,17679 25387,17293 25307,17117 25129,16721 25035,16379 25069,16245 25089,16164 25110,16148 25186,16157 25266,16167 25286,16196 25338,16380 25371,16496 25502,16847 25630,17159 25757,17471 25935,17985 26026,18301 26236,19037 26396,19495 26609,19972 26757,20305 26807,20380 26993,20548 27231,20763 27666,21290 27666,21363 27666,21449 27558,21451 27441,21367 27377,21321 27148,21097 26933,20870 26496,20409 26307,20111 26166,19661 26117,19505 26046,19315 26008,19237 L 25938,19096 25957,20296 C 25971,21234 25966,21514 25930,21580 25871,21693 25810,21709 25765,21625 25722,21545 25669,20696 25634,19545 Z"/>
       </g>
      </g>
      <g class="com.sun.star.drawing.ClosedBezierShape">
       <g id="id21">
        <rect class="BoundingBox" stroke="none" fill="none" x="29415" y="14586" width="3718" height="6393"/>
        <path fill="rgb(0,0,0)" stroke="none" d="M 29873,20241 C 30397,19680 30704,19318 30859,19080 31030,18818 31350,18221 31387,18097 31409,18024 31404,18018 31348,18050 31253,18103 31158,18038 31158,17921 31158,17775 31070,17507 30910,17160 30668,16635 30488,15856 30488,15331 30488,15108 30552,15015 30650,15096 30734,15166 30759,15257 30804,15643 30885,16335 30971,16670 31192,17139 31305,17382 31424,17642 31455,17717 31504,17838 31517,17848 31570,17805 31739,17666 32292,16629 32509,16046 32577,15861 32675,15552 32726,15358 32895,14717 32988,14522 33086,14604 33167,14671 33139,14926 32998,15417 32754,16265 32340,17173 31900,17830 31768,18026 31579,18346 31478,18542 31144,19193 30983,19411 30315,20118 30113,20332 29862,20614 29756,20746 29551,20999 29491,21029 29428,20911 29376,20814 29469,20674 29873,20241 Z"/>
       </g>
      </g>
      <g class="com.sun.star.drawing.ClosedBezierShape">
       <g id="id22">
        <rect class="BoundingBox" stroke="none" fill="none" x="27384" y="15171" width="1787" height="5387"/>
        <path fill="rgb(0,0,0)" stroke="none" d="M 27948,20508 C 27848,20387 27879,19381 27996,18956 28023,18859 28086,18627 28136,18440 L 28227,18099 28126,17663 C 28003,17130 27954,17014 27635,16504 27497,16282 27384,16075 27384,16042 27384,16010 27410,15962 27442,15936 27492,15894 27515,15907 27627,16033 27697,16113 27864,16363 27998,16588 28131,16814 28247,16998 28255,16998 28288,16998 28404,16673 28426,16516 28463,16263 28615,15894 28844,15505 28990,15256 29064,15163 29106,15172 29210,15192 29181,15472 29055,15678 28909,15915 28765,16286 28703,16583 28675,16718 28609,16911 28556,17011 28463,17186 28460,17211 28458,17774 28456,18318 28449,18384 28341,18780 28243,19141 28221,19294 28195,19820 28159,20542 28172,20438 28105,20506 28036,20574 28004,20574 27948,20508 Z"/>
       </g>
      </g>
      <g class="com.sun.star.drawing.ClosedBezierShape">
       <g id="id23">
        <rect class="BoundingBox" stroke="none" fill="none" x="35958" y="11748" width="5704" height="7465"/>
        <path fill="rgb(0,0,0)" stroke="none" d="M 36034,18890 C 36148,18729 36571,18253 37104,17686 37679,17074 37950,16735 38373,16101 38670,15655 38944,15299 39871,14158 40028,13964 40254,13647 40373,13453 40491,13259 40710,12918 40859,12694 41008,12471 41167,12225 41213,12148 41371,11876 41499,11738 41578,11749 41703,11767 41686,11894 41523,12143 41439,12271 41141,12735 40859,13175 40578,13614 40172,14189 39958,14454 39195,15395 39029,15611 38683,16116 38021,17084 37912,17222 37314,17843 36744,18434 36266,18978 36181,19131 36134,19217 36057,19237 35999,19178 35934,19114 35946,19014 36034,18890 Z"/>
       </g>
      </g>
      <g class="com.sun.star.drawing.ClosedBezierShape">
       <g id="id24">
        <rect class="BoundingBox" stroke="none" fill="none" x="34197" y="14529" width="3317" height="4534"/>
        <path fill="rgb(0,0,0)" stroke="none" d="M 34275,18653 C 34394,18366 34521,18219 34897,17934 35295,17632 35433,17486 35686,17096 35790,16935 35990,16669 36131,16504 36272,16339 36436,16133 36496,16046 36555,15958 36663,15820 36735,15737 36892,15556 37099,15170 37155,14952 37205,14760 37350,14529 37420,14529 37573,14529 37534,14821 37319,15286 37168,15613 37050,15784 36628,16293 36237,16765 35955,17143 35870,17311 35788,17472 35242,18012 34983,18188 34761,18339 34660,18467 34480,18824 34353,19075 34324,19100 34249,19024 34174,18950 34179,18888 34275,18653 Z"/>
       </g>
      </g>
      <g class="com.sun.star.drawing.ClosedBezierShape">
       <g id="id25">
        <rect class="BoundingBox" stroke="none" fill="none" x="38212" y="7293" width="9976" height="10442"/>
        <path fill="rgb(0,0,0)" stroke="none" d="M 38912,16846 C 39340,16497 40008,15824 40849,14893 41298,14397 41463,14241 42588,13254 43501,12452 44058,11899 44465,11389 45157,10522 45620,10070 46493,9410 46750,9216 47038,8970 47134,8862 47319,8654 47832,7726 47868,7532 47915,7284 48038,7219 48147,7385 48221,7498 48196,7602 48023,7897 47949,8023 47847,8209 47796,8310 47612,8675 47320,9087 47133,9243 47029,9330 46730,9560 46468,9755 46206,9949 45885,10207 45755,10328 45523,10543 44662,11519 44276,12007 44051,12291 43357,12965 42993,13253 42193,13887 41559,14489 40629,15501 39854,16345 39430,16759 38935,17157 38760,17298 38557,17487 38483,17576 38340,17751 38321,17762 38256,17697 38123,17564 38277,17364 38912,16846 Z"/>
       </g>
      </g>
      <g class="com.sun.star.drawing.ClosedBezierShape">
       <g id="id26">
        <rect class="BoundingBox" stroke="none" fill="none" x="42619" y="7491" width="7326" height="7210"/>
        <path fill="rgb(0,0,0)" stroke="none" d="M 43771,13594 C 44358,13251 45424,12520 46002,12063 46350,11788 47293,10878 47958,10176 48519,9583 48683,9383 49016,8888 49232,8566 49455,8199 49510,8073 49732,7570 49762,7512 49808,7494 49834,7484 49880,7512 49909,7556 49956,7629 49956,7658 49905,7829 49790,8217 49541,8632 48956,9412 48519,9994 48233,10309 47440,11077 46213,12266 45048,13178 44000,13770 43582,14007 43238,14243 42949,14492 42689,14716 42685,14719 42648,14682 42493,14527 42979,14056 43771,13594 Z"/>
       </g>
      </g>
      <g class="com.sun.star.drawing.ClosedBezierShape">
       <g id="id27">
        <rect class="BoundingBox" stroke="none" fill="none" x="49808" y="6318" width="2126" height="2568"/>
        <path fill="rgb(0,0,0)" stroke="none" d="M 49983,8549 C 50058,8493 50143,8414 50172,8375 50200,8335 50396,8120 50605,7897 50939,7542 51482,6805 51649,6481 51711,6361 51852,6281 51906,6336 51977,6406 51903,6617 51714,6881 51612,7022 51468,7238 51394,7360 51259,7582 50976,7903 50352,8541 50018,8881 49911,8943 49828,8840 49774,8773 49833,8663 49983,8549 Z"/>
       </g>
      </g>
      <g class="com.sun.star.drawing.ClosedBezierShape">
       <g id="id28">
        <rect class="BoundingBox" stroke="none" fill="none" x="1067" y="6512" width="21775" height="28180"/>
        <path fill="rgb(255,245,206)" stroke="none" d="M 3219,33552 C 3219,33298 3217,33292 3140,33318 2933,33386 2716,33275 2550,33016 2322,32661 2344,32480 2620,32436 2731,32418 2807,32371 2939,32239 3035,32143 3113,32034 3113,31997 3113,31913 3201,31835 3268,31861 3295,31871 3363,31972 3418,32085 L 3519,32291 3519,33085 3519,33878 3625,33878 C 3762,33878 3814,33773 3964,33199 L 4077,32767 3986,32388 C 3936,32179 3885,31945 3873,31867 3826,31572 3740,31375 3598,31243 3427,31083 3328,30815 3301,30439 3285,30211 3296,30137 3378,29910 3627,29222 4118,28365 4598,27782 4722,27630 4883,27433 4954,27344 5089,27175 5248,26776 5367,26311 5404,26166 5500,25884 5579,25685 5721,25329 5725,25308 5777,24599 5854,23535 5901,23367 6334,22599 6433,22424 6503,22244 6530,22097 6553,21970 6644,21676 6731,21442 6819,21208 6928,20878 6973,20710 7094,20262 7637,18961 7761,18824 7842,18733 8023,18748 8310,18869 8615,18997 8884,19187 8964,19332 9024,19440 9056,19457 10068,19936 10294,20043 10572,20193 10685,20270 10986,20475 11404,20676 12050,20929 12364,21052 12898,21271 13238,21416 13578,21561 13943,21700 14049,21724 14156,21749 14378,21821 14543,21883 14820,21989 15204,22089 15889,22235 16075,22275 16349,22386 16771,22591 17108,22755 17425,22889 17476,22889 17552,22889 17609,22834 17792,22581 17914,22411 18175,22058 18370,21796 18746,21293 18860,21120 19077,20720 19151,20584 19280,20376 19364,20257 19448,20138 19517,20028 19517,20012 19517,19996 19605,19830 19711,19641 19818,19453 19931,19198 19962,19075 19994,18951 20051,18787 20090,18710 20129,18634 20301,18241 20473,17839 20644,17437 20847,16984 20922,16832 20998,16681 21071,16494 21085,16416 21117,16233 21389,15548 21586,15156 21670,14986 21740,14823 21740,14793 21740,14764 21632,14669 21500,14584 21061,14300 20825,14005 20901,13837 20972,13683 20850,13337 20524,12767 20413,12573 20299,12325 20270,12214 20206,11968 19976,11428 19861,11254 19814,11183 19756,11065 19731,10991 19696,10883 19653,10841 19505,10766 19208,10616 18918,10398 18918,10325 18918,10205 19020,10215 19323,10362 19606,10499 19800,10546 19800,10476 19800,10413 19912,10403 20037,10456 20234,10538 21480,10858 21754,10897 22056,10940 22770,10952 22830,10915 22860,10896 22825,10854 22715,10777 22628,10716 22459,10591 22339,10498 21989,10229 21608,10061 21034,9923 20753,9855 20464,9774 20391,9743 20278,9694 20225,9692 19997,9728 19853,9752 19642,9761 19529,9748 L 19323,9726 18899,10148 C 18664,10381 18433,10646 18382,10741 18304,10885 18068,11786 17936,12444 17902,12613 17812,12662 17714,12565 L 17639,12490 17712,12160 C 17913,11250 18007,10872 18067,10740 18136,10588 18251,10435 18555,10090 L 18740,9882 18538,9813 C 18427,9775 18184,9640 18000,9514 17649,9275 17368,9152 16676,8936 16325,8827 16247,8788 16130,8668 15947,8480 15868,8266 15894,8029 15913,7848 16151,7079 16303,6701 L 16380,6512 16123,6537 C 15818,6567 15645,6651 15319,6932 14836,7347 14571,7544 14358,7645 13890,7868 12369,8171 12399,8035 12405,8010 12330,7939 12233,7877 12136,7814 12004,7719 11940,7666 L 11824,7569 11633,7663 C 11529,7714 11432,7756 11417,7756 11403,7756 11361,7783 11324,7817 11255,7879 11072,7990 10753,8163 10657,8215 10548,8296 10512,8342 10476,8388 10425,8426 10400,8426 10375,8426 10335,8449 10312,8477 10240,8563 9560,8873 9393,8895 9227,8917 9001,8890 8626,8803 8427,8757 8381,8728 8133,8485 7982,8338 7811,8172 7753,8116 L 7649,8015 7524,8199 C 7281,8558 7117,8732 6912,8846 6718,8954 6698,8958 6532,8922 6315,8876 6324,8876 6324,8925 6324,8979 6433,9058 6510,9060 6545,9060 6608,9083 6651,9110 6694,9137 6805,9170 6898,9183 7047,9204 7075,9197 7132,9126 7188,9057 7206,9052 7254,9093 7286,9119 7311,9168 7311,9202 7311,9235 7341,9301 7377,9347 7445,9435 7477,9602 7511,10053 7525,10234 7519,10329 7492,10346 7470,10359 7452,10446 7452,10538 7452,10670 7434,10724 7369,10785 7308,10842 7279,10919 7262,11065 7249,11175 7208,11329 7170,11407 7133,11485 6880,11793 6609,12093 6275,12461 6061,12733 5946,12934 5853,13097 5646,13415 5487,13641 5328,13868 5083,14219 4944,14423 4805,14627 4613,14879 4518,14983 4293,15229 4217,15384 4136,15758 3993,16417 3963,17214 4068,17566 4088,17632 4120,17988 4138,18356 4166,18905 4193,19109 4282,19482 4420,20051 4410,20189 4194,20755 4085,21043 4004,21337 3944,21672 3785,22551 3764,22616 3556,22849 3280,23159 3046,23755 2920,24474 2892,24632 2838,24821 2800,24893 2582,25307 2385,25807 2280,26216 2181,26600 2154,26789 2124,27296 2096,27782 2074,27944 2017,28072 1875,28391 1844,28623 1843,29398 1841,30115 1810,30789 1742,31576 1718,31854 1690,31989 1635,32081 1536,32249 1542,32261 1667,32155 1803,32041 1904,32010 1969,32063 2069,32146 2024,32235 1799,32394 1475,32623 1429,32673 1385,32843 1363,32927 1309,33076 1264,33173 1219,33270 1151,33476 1113,33632 1035,33947 1050,34025 1202,34117 1254,34148 1382,34246 1486,34336 1729,34544 1833,34596 2121,34656 2431,34720 2707,34693 2875,34582 3104,34431 3219,34086 3219,33552 Z"/>
       </g>
      </g>
      <g class="com.sun.star.drawing.ClosedBezierShape">
       <g id="id29">
        <rect class="BoundingBox" stroke="none" fill="none" x="11906" y="17499" width="1500" height="3135"/>
        <path fill="rgb(0,0,0)" stroke="none" d="M 11911,20591 C 11883,20547 11962,20471 12222,20291 12338,20211 12468,20052 12690,19719 L 12997,19258 13065,18860 C 13163,18290 13164,18039 13068,17855 12977,17681 12970,17588 13042,17528 13127,17457 13199,17513 13296,17725 13426,18008 13436,18268 13342,18862 L 13263,19364 13074,19627 C 12971,19772 12844,19958 12793,20040 12665,20247 12508,20410 12322,20530 12160,20635 11956,20665 11910,20591 L 11911,20591 Z"/>
       </g>
      </g>
      <g class="com.sun.star.drawing.ClosedBezierShape">
       <g id="id30">
        <rect class="BoundingBox" stroke="none" fill="none" x="10563" y="13618" width="7644" height="6826"/>
        <path fill="rgb(0,0,0)" stroke="none" d="M 16971,20038 C 16177,19646 15898,19527 15583,19446 15191,19346 14657,18997 14410,18681 14346,18599 14198,18385 14080,18205 13810,17791 13482,17458 13093,17202 12926,17092 12747,16952 12695,16891 12568,16739 12172,16134 12074,15941 12029,15853 11814,15605 11584,15377 11358,15153 11142,14906 11104,14829 11065,14751 11008,14656 10977,14617 10945,14578 10901,14491 10878,14423 10855,14355 10773,14192 10695,14060 10544,13808 10522,13640 10634,13619 10718,13603 10886,13846 11177,14402 11403,14831 11447,14890 11797,15234 12091,15524 12225,15690 12410,15993 12836,16691 12910,16779 13238,16990 13635,17246 14034,17658 14407,18199 14575,18442 14779,18701 14860,18775 15015,18915 15532,19185 15644,19185 15767,19185 16538,19513 17141,19823 17546,20030 17819,20147 17964,20176 18088,20200 18190,20241 18201,20269 18247,20389 17982,20486 17782,20423 17731,20406 17366,20233 16971,20038 Z"/>
       </g>
      </g>
      <g class="com.sun.star.drawing.ClosedBezierShape">
       <g id="id31">
        <rect class="BoundingBox" stroke="none" fill="none" x="14437" y="13014" width="3868" height="3837"/>
        <path fill="rgb(0,0,0)" stroke="none" d="M 14437,16717 C 14437,16619 14597,16581 15178,16539 15946,16483 16114,16430 16676,16064 17218,15710 17435,15425 17720,14694 17859,14336 17916,14128 17972,13772 18067,13169 18099,13048 18166,13022 18327,12960 18346,13251 18227,13976 18129,14571 17709,15478 17357,15855 17048,16185 16358,16604 15917,16729 15563,16829 14620,16889 14499,16819 14465,16799 14437,16753 14437,16717 Z"/>
       </g>
      </g>
      <g class="com.sun.star.drawing.ClosedBezierShape">
       <g id="id32">
        <rect class="BoundingBox" stroke="none" fill="none" x="8398" y="9661" width="1420" height="3682"/>
        <path fill="rgb(0,0,0)" stroke="none" d="M 8789,11182 C 8712,10864 8596,10459 8530,10282 8464,10105 8405,9941 8399,9918 8387,9873 8513,9661 8552,9661 8581,9661 8881,10373 8930,10560 8951,10638 9000,10866 9041,11066 9161,11666 9343,12182 9690,12905 9861,13262 9859,13400 9683,13319 9457,13216 9040,12218 8789,11182 Z"/>
       </g>
      </g>
      <g class="com.sun.star.drawing.ClosedBezierShape">
       <g id="id33">
        <rect class="BoundingBox" stroke="none" fill="none" x="10759" y="8594" width="646" height="3925"/>
        <path fill="rgb(0,0,0)" stroke="none" d="M 10759,10966 C 10759,10124 10767,10001 10835,9731 10935,9338 10971,8905 10910,8833 10874,8789 10875,8779 10914,8779 10941,8779 11062,8732 11183,8674 11304,8617 11404,8583 11404,8599 11404,8615 11379,8697 11350,8781 11321,8864 11279,9043 11258,9177 11237,9312 11189,9512 11151,9621 11044,9924 11010,10623 11055,11593 11085,12235 11084,12425 11050,12466 11002,12524 10889,12536 10859,12486 10799,12389 10760,11790 10759,10966 Z"/>
       </g>
      </g>
      <g class="com.sun.star.drawing.ClosedBezierShape">
       <g id="id34">
        <rect class="BoundingBox" stroke="none" fill="none" x="2740" y="32342" width="544" height="703"/>
        <path fill="rgb(255,245,206)" stroke="none" d="M 3271,32479 L 3248,32342 3084,32487 C 2993,32567 2875,32655 2821,32683 2703,32744 2715,32843 2854,32969 2965,33070 3013,33069 3142,32960 3261,32860 3307,32689 3271,32479 Z"/>
       </g>
      </g>
      <g class="com.sun.star.drawing.ClosedBezierShape">
       <g id="id35">
        <rect class="BoundingBox" stroke="none" fill="none" x="17788" y="15040" width="5645" height="9079"/>
        <path fill="rgb(42,96,153)" stroke="none" d="M 20015,23228 C 20096,23071 20279,22760 20422,22537 20565,22314 20765,21975 20867,21784 20969,21593 21246,21144 21482,20785 21955,20070 22057,19848 22257,19100 22505,18174 22538,18086 22705,17890 22829,17744 22914,17575 23110,17079 23418,16300 23443,16199 23428,15800 23414,15434 23398,15412 23150,15411 22916,15410 22626,15325 22303,15163 22147,15085 22003,15030 21984,15042 21905,15091 21588,15795 21403,16333 21294,16650 21176,16958 21140,17016 20999,17248 20223,19083 20223,19185 20223,19254 19721,20206 19545,20470 19462,20595 19315,20841 19218,21017 19047,21329 18461,22161 18012,22731 17890,22886 17789,23030 17789,23051 17789,23071 17880,23116 17992,23151 18103,23185 18308,23284 18446,23369 18701,23527 19104,23918 19146,24051 19174,24137 19176,24137 19304,24071 19477,23982 19859,23529 20015,23228 Z"/>
       </g>
      </g>
      <g class="com.sun.star.drawing.ClosedBezierShape">
       <g id="id36">
        <rect class="BoundingBox" stroke="none" fill="none" x="17098" y="6397" width="10837" height="5052"/>
        <path fill="rgb(255,245,206)" stroke="none" d="M 26432,11346 C 26858,11407 27059,11363 27550,11102 27920,10905 27944,10886 27931,10797 27922,10744 27908,10606 27897,10490 27873,10211 27757,9776 27634,9504 27550,9320 27479,9237 27185,8983 26993,8817 26773,8614 26695,8533 26494,8322 26257,8156 26113,8126 25862,8073 25664,7990 25352,7804 25176,7699 24981,7598 24919,7581 24841,7558 24633,7570 24248,7617 22597,7821 21289,7719 20310,7310 19548,6991 18317,6597 17752,6490 17239,6394 17122,6380 17101,6414 17080,6448 17164,6486 17260,6486 17380,6486 17491,6560 17558,6683 17594,6750 17694,6862 17781,6933 17882,7016 17968,7130 18022,7252 18080,7383 18143,7463 18228,7513 18296,7553 18371,7627 18396,7678 18436,7760 18472,7774 18752,7815 19108,7866 19473,7961 19504,8011 19515,8030 19493,8076 19455,8115 19386,8184 19375,8184 18953,8129 18716,8098 18472,8073 18410,8073 18248,8073 18141,7986 18141,7855 18141,7679 18046,7796 17961,8077 17901,8272 17889,8390 17899,8688 L 17911,9058 18043,9193 C 18185,9338 18553,9577 18585,9545 18596,9534 18548,9443 18478,9342 18311,9098 18312,8980 18482,8890 18722,8764 19022,8903 19022,9141 19022,9206 19045,9290 19073,9328 19119,9390 19171,9396 19716,9399 20188,9401 20343,9414 20469,9462 20556,9495 20816,9569 21047,9626 21556,9751 22182,10044 22617,10361 22876,10550 24373,11344 24630,11429 24760,11472 25250,11435 25496,11364 25745,11292 26018,11287 26432,11346 Z"/>
       </g>
      </g>
      <g class="com.sun.star.drawing.ClosedBezierShape">
       <g id="id37">
        <rect class="BoundingBox" stroke="none" fill="none" x="486" y="805" width="11752" height="9421"/>
        <path fill="rgb(232,162,2)" stroke="none" d="M 5308,9978 C 5342,9978 5413,9930 5465,9872 5517,9814 5571,9766 5586,9766 5652,9766 6130,9455 6130,9412 6130,9369 5960,9290 5680,9202 5626,9185 5541,9139 5490,9099 5439,9058 5366,9026 5329,9026 5291,9026 5147,8937 5010,8830 4684,8574 4577,8372 4591,8038 4604,7732 4672,7540 4852,7310 5073,7026 5436,6835 5698,6866 5769,6874 5867,6856 5931,6823 6100,6736 6553,6711 6747,6779 6960,6853 7168,6963 7218,7029 7240,7058 7356,7158 7476,7251 7596,7344 7822,7520 7979,7643 8136,7765 8264,7886 8264,7911 8264,7937 8384,8053 8531,8169 8768,8357 8824,8385 9036,8420 9177,8444 9317,8448 9378,8430 9532,8386 9809,8255 9834,8214 9846,8194 9930,8138 10021,8090 10111,8041 10258,7947 10345,7881 10433,7815 10521,7759 10542,7758 10563,7757 10617,7716 10663,7668 10708,7619 10922,7493 11139,7386 11381,7267 11575,7145 11645,7068 11707,7000 11778,6944 11803,6944 11828,6944 11884,6897 11927,6838 11970,6780 12026,6733 12052,6733 12201,6733 12292,6380 12200,6161 12136,6009 12056,5957 11887,5957 11805,5957 11722,5921 11629,5847 L 11492,5738 11368,5876 C 11300,5952 11201,6041 11147,6075 11090,6110 11040,6179 11028,6238 11000,6379 10795,6529 10522,6608 10395,6644 10261,6691 10222,6711 10066,6793 9887,6839 9516,6894 9303,6925 9110,6966 9087,6985 9025,7035 8227,7036 8133,6985 8090,6962 7955,6933 7833,6921 7711,6909 7580,6877 7542,6851 7503,6825 7446,6803 7413,6803 7305,6803 5865,5703 5865,5621 5865,5598 5808,5528 5737,5464 L 5610,5348 5633,5114 5656,4881 5408,4695 C 5272,4593 5132,4510 5096,4510 5029,4510 4814,4367 4765,4290 4750,4265 4737,4206 4736,4157 4736,4109 4711,4022 4680,3963 4612,3836 4602,3500 4662,3387 4686,3343 4712,3279 4720,3247 4728,3214 4749,3128 4766,3056 4801,2914 5138,2464 5209,2464 5233,2464 5385,2337 5548,2182 5710,2027 5853,1900 5867,1900 5895,1900 6147,1599 6147,1565 6147,1553 6115,1473 6076,1388 6024,1273 5932,1176 5726,1019 5417,784 5326,763 5054,859 4971,888 4795,912 4663,912 4531,912 4413,928 4401,947 4389,967 4340,982 4293,982 4166,982 3777,1123 3693,1199 3653,1235 3605,1265 3587,1265 3568,1265 3450,1356 3325,1469 3077,1689 2941,1786 2783,1855 2654,1912 2475,2054 2292,2244 2213,2326 2130,2394 2107,2394 2084,2394 2037,2425 2002,2464 1967,2503 1919,2535 1895,2535 1855,2535 1561,2893 1561,2942 1561,2954 1507,3028 1441,3105 1375,3182 1310,3286 1298,3336 1285,3386 1204,3519 1118,3631 1032,3743 961,3865 961,3903 961,3941 930,4011 891,4061 852,4110 820,4182 820,4220 820,4258 789,4329 750,4379 711,4428 679,4489 679,4513 679,4582 606,4798 543,4916 506,4984 486,5110 486,5269 485,5592 583,5806 801,5955 887,6015 967,6078 978,6096 989,6114 1015,6260 1035,6421 1055,6582 1093,6761 1119,6820 1145,6879 1194,7014 1229,7121 1264,7227 1370,7477 1465,7676 1599,7956 1690,8091 1873,8280 2147,8564 4030,10013 4125,10014 4160,10014 4237,10045 4295,10084 4353,10122 4436,10154 4478,10154 4521,10154 4565,10170 4577,10190 4612,10246 4800,10231 4835,10168 4868,10110 5195,9978 5308,9978 Z"/>
       </g>
      </g>
      <g class="com.sun.star.drawing.ClosedBezierShape">
       <g id="id38">
        <rect class="BoundingBox" stroke="none" fill="none" x="2908" y="6277" width="1248" height="3201"/>
        <path fill="rgb(0,0,0)" stroke="none" d="M 3658,9398 C 3605,9317 3603,9281 3640,9104 3745,8602 3710,7895 3572,7738 3537,7699 3419,7482 3308,7255 3197,7029 3085,6835 3058,6825 2988,6798 2897,6558 2909,6434 2917,6357 2944,6320 3011,6296 3139,6251 3286,6296 3322,6390 3339,6433 3385,6498 3425,6534 3465,6570 3581,6768 3682,6975 3783,7181 3893,7382 3927,7420 4137,7662 4219,8500 4097,9148 4050,9399 4020,9436 3848,9467 3735,9488 3712,9480 3658,9398 Z"/>
       </g>
      </g>
      <g class="com.sun.star.drawing.ClosedBezierShape">
       <g id="id39">
        <rect class="BoundingBox" stroke="none" fill="none" x="1824" y="6596" width="1277" height="2114"/>
        <path fill="rgb(0,0,0)" stroke="none" d="M 2619,8485 C 2619,8468 2564,8334 2496,8189 2428,8044 2373,7904 2373,7878 2373,7852 2358,7821 2341,7811 2323,7800 2256,7684 2191,7553 2126,7422 2060,7310 2045,7303 2030,7297 1995,7236 1968,7170 1940,7104 1903,7050 1884,7050 1833,7050 1803,6822 1840,6723 1877,6627 2035,6569 2156,6608 2193,6619 2257,6705 2297,6799 2337,6892 2394,6989 2424,7014 2454,7038 2478,7072 2478,7088 2478,7105 2550,7236 2637,7380 2724,7523 2796,7676 2796,7720 2796,7763 2840,7864 2894,7945 3068,8204 3119,8343 3093,8488 3059,8672 3020,8708 2853,8708 2730,8708 2701,8693 2664,8613 2639,8560 2619,8503 2619,8485 Z"/>
       </g>
      </g>
      <g class="com.sun.star.drawing.ClosedBezierShape">
       <g id="id40">
        <rect class="BoundingBox" stroke="none" fill="none" x="4278" y="4869" width="1079" height="1842"/>
        <path fill="rgb(0,0,0)" stroke="none" d="M 4863,6292 C 4885,6086 4877,6051 4757,5803 4686,5655 4598,5518 4561,5499 4467,5448 4277,5157 4278,5064 4279,4943 4321,4903 4473,4879 4625,4855 4626,4856 4849,5127 5146,5488 5380,5931 5354,6084 5344,6140 5330,6259 5323,6348 5308,6512 5226,6680 5149,6704 5125,6711 5062,6712 5008,6705 4876,6688 4835,6571 4863,6292 Z"/>
       </g>
      </g>
      <g class="com.sun.star.drawing.ClosedBezierShape">
       <g id="id41">
        <rect class="BoundingBox" stroke="none" fill="none" x="921" y="2691" width="2298" height="3542"/>
        <path fill="rgb(0,0,0)" stroke="none" d="M 2869,6213 C 2821,6204 2734,6161 2674,6117 2543,6019 2450,5999 1844,5940 1439,5900 1353,5900 1272,5942 1087,6038 943,5993 926,5833 913,5713 923,5683 1014,5575 1097,5477 1099,5464 1050,5369 931,5142 934,5137 1839,3970 L 1998,3765 2005,3291 C 2009,2993 2027,2798 2052,2767 2111,2696 2257,2668 2338,2711 2412,2751 2525,2981 2495,3030 2485,3046 2475,3175 2474,3317 2472,3459 2443,3712 2409,3879 2350,4173 2339,4195 2040,4583 1871,4803 1688,5010 1635,5043 1572,5081 1518,5160 1483,5265 1454,5354 1439,5429 1451,5431 1463,5432 1544,5439 1632,5445 2172,5483 2522,5527 2558,5563 2580,5585 2632,5604 2673,5604 2714,5604 2778,5627 2816,5656 2853,5684 2917,5708 2958,5708 3175,5712 3311,6065 3141,6184 3062,6239 3027,6243 2869,6213 Z"/>
       </g>
      </g>
      <g class="com.sun.star.drawing.ClosedBezierShape">
       <g id="id42">
        <rect class="BoundingBox" stroke="none" fill="none" x="2088" y="1886" width="1483" height="3327"/>
        <path fill="rgb(0,0,0)" stroke="none" d="M 2205,5191 C 2018,5155 2062,4763 2288,4463 2373,4349 2443,4224 2443,4184 2443,4144 2499,4043 2568,3959 2637,3875 2726,3731 2767,3638 2808,3545 2868,3430 2901,3381 2970,3281 3077,2771 3080,2535 3080,2447 3101,2282 3125,2166 3163,1982 3182,1951 3279,1912 3377,1872 3399,1875 3485,1942 3578,2015 3580,2024 3559,2285 3489,3164 3460,3327 3338,3563 3312,3615 3290,3679 3290,3707 3290,3734 3194,3882 3077,4036 2961,4190 2855,4356 2843,4404 2832,4453 2761,4575 2685,4676 2610,4777 2549,4896 2549,4941 2549,5031 2394,5218 2327,5211 2304,5208 2249,5199 2205,5191 Z"/>
       </g>
      </g>
      <g class="com.sun.star.drawing.ClosedBezierShape">
       <g id="id43">
        <rect class="BoundingBox" stroke="none" fill="none" x="3576" y="1346" width="2132" height="510"/>
        <path fill="rgb(0,0,0)" stroke="none" d="M 3587,1572 C 3600,1481 3628,1397 3649,1384 3669,1372 4106,1357 4618,1351 5532,1341 5552,1343 5636,1418 5709,1483 5718,1512 5695,1617 5669,1738 5663,1742 5458,1767 5342,1782 4954,1800 4595,1807 4236,1814 3894,1832 3835,1845 3756,1864 3707,1853 3645,1803 3571,1743 3565,1717 3587,1572 Z"/>
       </g>
      </g>
      <g class="com.sun.star.drawing.ClosedBezierShape">
       <g id="id44">
        <rect class="BoundingBox" stroke="none" fill="none" x="18645" y="9130" width="97" height="108"/>
        <path fill="rgb(255,245,206)" stroke="none" d="M 18684,9131 C 18637,9131 18635,9141 18671,9184 18695,9213 18721,9237 18728,9237 18735,9237 18741,9213 18741,9184 18741,9155 18715,9131 18684,9131 Z"/>
       </g>
      </g>
      <g class="com.sun.star.drawing.ClosedBezierShape">
       <g id="id45">
        <rect class="BoundingBox" stroke="none" fill="none" x="17455" y="7168" width="298" height="1786"/>
        <path fill="rgb(255,245,206)" stroke="none" d="M 17618,8564 C 17630,8362 17666,8080 17697,7939 17767,7618 17770,7298 17704,7208 17658,7144 17652,7149 17618,7280 17514,7685 17415,8778 17472,8886 17551,9034 17594,8937 17618,8564 Z"/>
       </g>
      </g>
      <g class="com.sun.star.drawing.ClosedBezierShape">
       <g id="id46">
        <rect class="BoundingBox" stroke="none" fill="none" x="16907" y="6749" width="453" height="2029"/>
        <path fill="rgb(255,245,206)" stroke="none" d="M 17169,8664 C 17180,8601 17213,8284 17242,7960 17271,7636 17314,7292 17336,7196 17369,7051 17366,6999 17320,6886 L 17263,6750 17261,6857 C 17260,6915 17206,7177 17140,7439 17021,7914 16907,8509 16907,8658 16907,8743 16948,8771 17073,8776 17134,8778 17155,8754 17169,8664 Z"/>
       </g>
      </g>
      <g class="com.sun.star.drawing.ClosedBezierShape">
       <g id="id47">
        <rect class="BoundingBox" stroke="none" fill="none" x="16169" y="6447" width="796" height="2121"/>
        <path fill="rgb(255,245,206)" stroke="none" d="M 16730,7996 C 16771,7777 16845,7454 16894,7279 16997,6917 16989,6803 16851,6593 L 16754,6447 16654,6616 C 16599,6709 16505,6944 16444,7138 16384,7332 16297,7605 16250,7744 16153,8036 16144,8211 16219,8355 16328,8566 16564,8639 16624,8481 16642,8434 16690,8216 16730,7996 Z"/>
       </g>
      </g>
      <g class="com.sun.star.drawing.ClosedBezierShape">
       <g id="id48">
        <rect class="BoundingBox" stroke="none" fill="none" x="5340" y="7194" width="1941" height="1265"/>
        <path fill="rgb(255,245,206)" stroke="none" d="M 6832,8220 C 6605,8330 6491,8368 6348,8383 6199,8398 6166,8388 6077,8303 5832,8068 5943,7685 6256,7685 6375,7685 6401,7699 6431,7778 L 6467,7872 6551,7793 C 6597,7750 6693,7701 6764,7685 6939,7646 7029,7732 7029,7936 7029,8062 7036,8076 7082,8038 7111,8014 7135,7957 7135,7911 7135,7866 7168,7799 7207,7761 L 7280,7694 7110,7549 C 7017,7469 6885,7379 6817,7349 6750,7319 6649,7272 6594,7243 6467,7177 6409,7178 6158,7250 6045,7282 5859,7315 5744,7324 5607,7334 5501,7364 5436,7413 5318,7500 5311,7531 5403,7560 5484,7586 5523,7711 5527,7959 5529,8121 5543,8156 5636,8231 5803,8367 6090,8441 6505,8456 6654,8461 6676,8450 6766,8333 6820,8262 6849,8212 6832,8220 Z"/>
       </g>
      </g>
      <g class="com.sun.star.drawing.ClosedBezierShape">
       <g id="id49">
        <rect class="BoundingBox" stroke="none" fill="none" x="52501" y="4511" width="2166" height="2716"/>
        <path fill="rgb(42,96,153)" stroke="none" d="M 54035,6769 C 54229,6668 54413,6563 54444,6535 54474,6508 54546,6486 54603,6485 54699,6485 54694,6478 54525,6381 54083,6128 53986,5752 54109,4766 54132,4584 54131,4581 54040,4581 53989,4581 53947,4565 53947,4545 53947,4490 53768,4504 53571,4576 53382,4645 52670,5041 52562,5136 52523,5171 52501,5242 52501,5331 52501,5473 52557,5616 52957,6486 53068,6728 53188,6994 53224,7077 53259,7159 53302,7226 53320,7226 53338,7226 53427,7165 53517,7089 53608,7014 53841,6870 54035,6769 Z"/>
       </g>
      </g>
      <g class="com.sun.star.drawing.ClosedBezierShape">
       <g id="id50">
        <rect class="BoundingBox" stroke="none" fill="none" x="5069" y="2230" width="5410" height="4346"/>
        <path fill="rgb(255,245,206)" stroke="none" d="M 9904,6328 C 10021,6280 10133,6240 10154,6240 10175,6239 10251,6210 10323,6175 L 10454,6111 10300,5971 C 10169,5852 10136,5793 10083,5585 10049,5450 10000,5284 9974,5216 9948,5148 9917,5023 9906,4938 9886,4792 9895,4770 10082,4522 10190,4378 10316,4243 10362,4222 10423,4194 10450,4145 10468,4028 10504,3786 10466,3762 9940,3702 9580,3660 8675,3484 8636,3448 8618,3431 8561,3417 8511,3417 8427,3417 8420,3427 8433,3539 8446,3649 8434,3669 8319,3738 8190,3814 8190,3814 8262,3881 8447,4054 8358,4285 8117,4253 7968,4233 7911,4275 7911,4406 7911,4542 7842,4718 7775,4755 7677,4807 7524,4756 7472,4654 7436,4586 7430,4501 7449,4339 L 7475,4117 7371,4229 C 7283,4322 7249,4337 7158,4319 7099,4307 7038,4278 7023,4254 6928,4105 7063,3702 7300,3424 7602,3071 7657,3019 7829,2926 7922,2876 7998,2819 7997,2799 7993,2735 7695,2535 7602,2535 7506,2535 7427,2513 7082,2391 6766,2280 6425,2211 6307,2234 6202,2254 6170,2279 5865,2579 5778,2665 5674,2753 5634,2774 5531,2828 5159,3322 5159,3404 5159,3441 5135,3506 5105,3548 5057,3618 5057,3639 5105,3755 5135,3826 5159,3913 5159,3948 5159,3983 5195,4023 5239,4036 5374,4079 6044,4619 6083,4717 6104,4768 6118,4892 6114,4992 6109,5166 6115,5180 6256,5292 6336,5357 6413,5435 6425,5466 6473,5588 7380,6284 7594,6362 7941,6490 8421,6595 8546,6570 8575,6564 8845,6527 9146,6487 9513,6439 9762,6387 9904,6328 Z"/>
       </g>
      </g>
      <g class="com.sun.star.drawing.ClosedBezierShape">
       <g id="id51">
        <rect class="BoundingBox" stroke="none" fill="none" x="54087" y="3315" width="1696" height="3031"/>
        <path fill="rgb(255,255,0)" stroke="none" d="M 54732,6160 C 54596,6111 54595,6106 54551,5392 54513,4768 54532,4440 54608,4440 54667,4440 55782,3393 55782,3338 55782,3277 55460,3344 55221,3455 55097,3512 54891,3633 54763,3725 54471,3933 54088,4313 54088,4394 54088,4427 54128,4487 54177,4526 54251,4586 54267,4631 54271,4792 54274,4899 54264,5100 54248,5238 54213,5550 54276,5926 54384,6048 54463,6137 54816,6343 54891,6344 54927,6344 54927,6331 54891,6273 54867,6234 54795,6183 54732,6160 Z"/>
       </g>
      </g>
      <g class="com.sun.star.drawing.ClosedBezierShape">
       <g id="id52">
        <rect class="BoundingBox" stroke="none" fill="none" x="54818" y="3324" width="2641" height="2982"/>
        <path fill="rgb(255,255,0)" stroke="none" d="M 57440,4475 C 57398,3548 57432,3654 57107,3426 56791,3203 56218,3357 55744,3792 55619,3907 55401,4102 55259,4225 54858,4575 54776,4814 54835,5457 54871,5845 54908,5919 55139,6065 55362,6207 55508,6241 56027,6272 56841,6321 57320,6316 57369,6256 57448,6161 57480,5361 57440,4475 Z"/>
       </g>
      </g>
      <g class="com.sun.star.drawing.ClosedBezierShape">
       <g id="id53">
        <rect class="BoundingBox" stroke="none" fill="none" x="58077" y="3780" width="480" height="2354"/>
        <path fill="rgb(255,255,0)" stroke="none" d="M 58529,6101 C 58570,6075 58565,5935 58500,5211 58406,4156 58379,4007 58253,3866 58080,3672 58029,3813 58129,4210 58162,4340 58195,4728 58214,5216 58232,5652 58257,6037 58270,6071 58295,6137 58445,6154 58529,6101 Z"/>
       </g>
      </g>
      <g class="com.sun.star.drawing.ClosedBezierShape">
       <g id="id54">
        <rect class="BoundingBox" stroke="none" fill="none" x="57757" y="3843" width="210" height="2221"/>
        <path fill="rgb(255,255,0)" stroke="none" d="M 57771,3843 C 57764,3835 57757,4331 57757,4945 L 57757,6062 57846,6062 C 57895,6062 57944,6040 57955,6012 58009,5870 57844,3917 57771,3843 Z"/>
       </g>
      </g>
      <g class="com.sun.star.drawing.ClosedBezierShape">
       <g id="id55">
        <rect class="BoundingBox" stroke="none" fill="none" x="10389" y="4597" width="637" height="973"/>
        <path fill="rgb(232,162,2)" stroke="none" d="M 10843,5132 L 11024,4884 10905,4782 C 10638,4554 10630,4553 10516,4689 10376,4856 10360,4947 10430,5176 10543,5553 10659,5688 10661,5448 10661,5411 10743,5268 10843,5132 Z"/>
       </g>
      </g>
      <g class="com.sun.star.drawing.ClosedBezierShape">
       <g id="id56">
        <rect class="BoundingBox" stroke="none" fill="none" x="7523" y="3830" width="85" height="212"/>
        <path fill="rgb(0,0,0)" stroke="none" d="M 7570,3845 C 7518,3888 7504,4068 7554,4036 7571,4026 7592,3970 7601,3912 7613,3827 7607,3814 7570,3845 Z"/>
       </g>
      </g>
      <g class="com.sun.star.drawing.ClosedBezierShape">
       <g id="id57">
        <rect class="BoundingBox" stroke="none" fill="none" x="8205" y="3275" width="84" height="72"/>
        <path fill="rgb(0,0,0)" stroke="none" d="M 8281,3311 C 8270,3291 8244,3275 8224,3275 8205,3275 8199,3291 8211,3311 8223,3330 8249,3346 8268,3346 8287,3346 8293,3330 8281,3311 Z"/>
       </g>
      </g>
      <g class="com.sun.star.drawing.ClosedBezierShape">
       <g id="id58">
        <rect class="BoundingBox" stroke="none" fill="none" x="19771" y="48422" width="26" height="132"/>
        <path fill="rgb(0,0,0)" stroke="none" d="M 19771,48482 C 19772,48424 19780,48404 19789,48439 19798,48473 19797,48520 19787,48544 19778,48568 19770,48540 19771,48482 Z"/>
       </g>
      </g>
      <g class="com.sun.star.drawing.ClosedBezierShape">
       <g id="id59">
        <rect class="BoundingBox" stroke="none" fill="none" x="4560" y="-1" width="539" height="252"/>
        <path fill="rgb(0,0,0)" stroke="none" d="M 4560,247 C 4560,210 4685,141 4898,61 5188,-47 5157,-6 4839,142 4685,213 4560,261 4560,247 Z"/>
       </g>
      </g>
     </g>
    </g>
   </g>
  </g>
 </g>
</svg>