<?xml version="1.0" encoding="UTF-8" standalone="no"?>
<svg
   version="1.2"
   width="159.92mm"
   height="219.8mm"
   viewBox="0 0 15992 21980"
   preserveAspectRatio="xMidYMid"
   fill-rule="evenodd"
   stroke-width="28.222"
   stroke-linejoin="round"
   xml:space="preserve"
   id="svg2072"
   sodipodi:docname="MartialArts4B.svg"
   inkscape:version="1.2.2 (732a01da63, 2022-12-09, custom)"
   xmlns:inkscape="http://www.inkscape.org/namespaces/inkscape"
   xmlns:sodipodi="http://sodipodi.sourceforge.net/DTD/sodipodi-0.dtd"
   xmlns="http://www.w3.org/2000/svg"
   xmlns:svg="http://www.w3.org/2000/svg"
   xmlns:ooo="http://xml.openoffice.org/svg/export"><sodipodi:namedview
   id="namedview2074"
   pagecolor="#ffffff"
   bordercolor="#000000"
   borderopacity="0.25"
   inkscape:showpageshadow="2"
   inkscape:pageopacity="0.0"
   inkscape:pagecheckerboard="0"
   inkscape:deskcolor="#d1d1d1"
   inkscape:document-units="mm"
   showgrid="false"
   inkscape:zoom="0.99670153"
   inkscape:cx="297.98289"
   inkscape:cy="415.37008"
   inkscape:window-width="1920"
   inkscape:window-height="1031"
   inkscape:window-x="0"
   inkscape:window-y="25"
   inkscape:window-maximized="1"
   inkscape:current-layer="layer7" />
 <defs
   class="ClipPathGroup"
   id="defs1797">
  <clipPath
   id="presentation_clip_path"
   clipPathUnits="userSpaceOnUse">
   <rect
   x="0"
   y="0"
   width="15992"
   height="21980"
   id="rect1791" />
  </clipPath>
  <clipPath
   id="presentation_clip_path_shrink"
   clipPathUnits="userSpaceOnUse">
   <rect
   x="15"
   y="21"
   width="15961"
   height="21937"
   id="rect1794" />
  </clipPath>
 </defs>
 <defs
   class="TextShapeIndex"
   id="defs1801">
  <g
   ooo:slide="id1"
   ooo:id-list="id3 id4 id5 id6 id7 id8 id9 id10 id11 id12 id13 id14 id15 id16 id17 id18 id19 id20 id21 id22 id23 id24 id25 id26 id27 id28 id29 id30 id31 id32 id33 id34"
   id="g1799" />
 </defs>
 <defs
   class="EmbeddedBulletChars"
   id="defs1833">
  <g
   id="bullet-char-template-57356"
   transform="scale(0.00048828125,-0.00048828125)">
   <path
   d="M 580,1141 L 1163,571 580,0 -4,571 580,1141 Z"
   id="path1803" />
  </g>
  <g
   id="bullet-char-template-57354"
   transform="scale(0.00048828125,-0.00048828125)">
   <path
   d="M 8,1128 L 1137,1128 1137,0 8,0 8,1128 Z"
   id="path1806" />
  </g>
  <g
   id="bullet-char-template-10146"
   transform="scale(0.00048828125,-0.00048828125)">
   <path
   d="M 174,0 L 602,739 174,1481 1456,739 174,0 Z M 1358,739 L 309,1346 659,739 1358,739 Z"
   id="path1809" />
  </g>
  <g
   id="bullet-char-template-10132"
   transform="scale(0.00048828125,-0.00048828125)">
   <path
   d="M 2015,739 L 1276,0 717,0 1260,543 174,543 174,936 1260,936 717,1481 1274,1481 2015,739 Z"
   id="path1812" />
  </g>
  <g
   id="bullet-char-template-10007"
   transform="scale(0.00048828125,-0.00048828125)">
   <path
   d="M 0,-2 C -7,14 -16,27 -25,37 L 356,567 C 262,823 215,952 215,954 215,979 228,992 255,992 264,992 276,990 289,987 310,991 331,999 354,1012 L 381,999 492,748 772,1049 836,1024 860,1049 C 881,1039 901,1025 922,1006 886,937 835,863 770,784 769,783 710,716 594,584 L 774,223 C 774,196 753,168 711,139 L 727,119 C 717,90 699,76 672,76 641,76 570,178 457,381 L 164,-76 C 142,-110 111,-127 72,-127 30,-127 9,-110 8,-76 1,-67 -2,-52 -2,-32 -2,-23 -1,-13 0,-2 Z"
   id="path1815" />
  </g>
  <g
   id="bullet-char-template-10004"
   transform="scale(0.00048828125,-0.00048828125)">
   <path
   d="M 285,-33 C 182,-33 111,30 74,156 52,228 41,333 41,471 41,549 55,616 82,672 116,743 169,778 240,778 293,778 328,747 346,684 L 369,508 C 377,444 397,411 428,410 L 1163,1116 C 1174,1127 1196,1133 1229,1133 1271,1133 1292,1118 1292,1087 L 1292,965 C 1292,929 1282,901 1262,881 L 442,47 C 390,-6 338,-33 285,-33 Z"
   id="path1818" />
  </g>
  <g
   id="bullet-char-template-9679"
   transform="scale(0.00048828125,-0.00048828125)">
   <path
   d="M 813,0 C 632,0 489,54 383,161 276,268 223,411 223,592 223,773 276,916 383,1023 489,1130 632,1184 813,1184 992,1184 1136,1130 1245,1023 1353,916 1407,772 1407,592 1407,412 1353,268 1245,161 1136,54 992,0 813,0 Z"
   id="path1821" />
  </g>
  <g
   id="bullet-char-template-8226"
   transform="scale(0.00048828125,-0.00048828125)">
   <path
   d="M 346,457 C 273,457 209,483 155,535 101,586 74,649 74,723 74,796 101,859 155,911 209,963 273,989 346,989 419,989 480,963 531,910 582,859 608,796 608,723 608,648 583,586 532,535 482,483 420,457 346,457 Z"
   id="path1824" />
  </g>
  <g
   id="bullet-char-template-8211"
   transform="scale(0.00048828125,-0.00048828125)">
   <path
   d="M -4,459 L 1135,459 1135,606 -4,606 -4,459 Z"
   id="path1827" />
  </g>
  <g
   id="bullet-char-template-61548"
   transform="scale(0.00048828125,-0.00048828125)">
   <path
   d="M 173,740 C 173,903 231,1043 346,1159 462,1274 601,1332 765,1332 928,1332 1067,1274 1183,1159 1299,1043 1357,903 1357,740 1357,577 1299,437 1183,322 1067,206 928,148 765,148 601,148 462,206 346,322 231,437 173,577 173,740 Z"
   id="path1830" />
  </g>
 </defs>
 
 <g
   inkscape:groupmode="layer"
   id="layer1"
   inkscape:label="Base"><path
     fill="rgb(0,0,0)"
     stroke="none"
     d="M 413,21897 C -19,21751 -73,21673 73,21412 140,21294 179,21266 347,21221 454,21192 598,21152 666,21134 877,21075 1136,20911 1223,20782 1268,20715 1362,20632 1431,20598 1668,20483 1790,20358 1984,20033 2388,19354 2439,19188 2376,18745 2345,18525 2413,18383 2552,18383 2640,18383 2654,18358 2692,18130 2712,18015 2905,17587 3102,17219 3139,17151 3233,16953 3312,16778 3391,16604 3517,16357 3592,16231 3669,16102 3747,15911 3771,15794 3823,15536 3927,15288 4028,15179 4071,15134 4205,15025 4327,14938 4549,14780 4656,14643 4821,14310 4869,14212 4984,14029 5076,13903 5168,13777 5302,13557 5374,13413 5446,13270 5575,13055 5662,12937 5886,12630 6245,12093 6420,11804 6502,11669 6667,11462 6787,11346 6907,11229 7063,11045 7133,10936 7204,10827 7365,10643 7491,10527 7703,10331 7720,10304 7720,10168 7720,10043 7748,9985 7902,9793 8032,9631 8127,9549 8231,9509 8430,9433 8504,9273 8622,8659 8732,8087 8722,8004 8492,7639 8379,7461 8335,7346 8297,7124 8224,6703 8205,6692 8033,6963 7788,7351 7655,7499 7261,7822 7038,8004 6729,8265 6574,8401 6295,8644 5749,8967 5447,9065 5255,9127 4850,9174 4193,9209 3675,9237 3626,9246 3252,9385 3035,9465 2741,9554 2599,9581 2246,9650 2034,9718 1857,9819 1386,10088 1054,10153 1054,9976 1054,9887 1114,9811 1183,9811 1271,9811 1606,9631 1726,9520 1830,9424 1838,9406 1782,9395 1745,9387 1612,9453 1475,9548 1272,9688 1223,9708 1178,9671 1149,9646 1124,9597 1124,9561 1124,9517 1107,9503 1071,9516 975,9553 774,9494 732,9415 678,9315 754,9260 995,9228 1095,9214 1233,9175 1301,9139 1369,9104 1456,9064 1495,9051 1617,9011 1501,8998 1280,9029 969,9071 743,8996 839,8881 860,8856 1032,8776 1221,8703 1410,8629 1671,8518 1799,8455 L 2033,8340 1947,8230 C 1829,8080 1804,7906 1888,7831 1999,7734 2103,7718 2128,7796 2193,8002 2934,8501 3114,8461 3908,8285 4722,7975 5128,7695 5271,7597 5868,7343 5956,7343 6016,7343 6167,7196 6338,6972 6550,6695 6750,6453 6935,6249 7018,6158 7085,6053 7085,6016 7085,5873 7333,5325 7490,5122 7698,4850 7819,4760 8183,4603 8345,4533 8534,4426 8602,4365 8671,4304 8825,4193 8946,4120 9067,4046 9166,3967 9166,3943 9166,3918 9122,3857 9068,3805 8987,3727 8927,3707 8707,3688 8403,3662 8314,3618 8249,3461 8211,3371 8211,3334 8246,3278 8282,3221 8279,3197 8231,3144 8176,3083 8178,3074 8264,3000 8381,2898 8381,2827 8263,2827 8202,2827 8166,2804 8154,2757 8142,2711 8105,2686 8052,2686 8006,2686 7917,2640 7854,2585 L 7741,2483 7810,2330 C 7848,2246 7917,2131 7964,2076 8043,1981 8049,1946 8052,1528 8054,1282 8071,1057 8090,1028 8108,999 8119,947 8114,912 8093,784 8548,302 8802,182 9184,3 9978,-58 10348,63 10552,130 10820,303 10850,388 10862,420 10916,512 10970,592 11105,792 11248,1243 11248,1472 11248,1575 11210,1783 11165,1935 11028,2386 10996,2559 11021,2711 11038,2817 11028,2883 10983,2959 10925,3057 10925,3068 10996,3206 11115,3439 11313,3544 11830,3645 11927,3664 12127,3710 12275,3747 12423,3785 12572,3815 12606,3815 12661,3815 12840,3888 13152,4039 13287,4103 13662,4630 13787,4930 13848,5077 13915,5294 13936,5413 13969,5603 14000,5659 14190,5877 14478,6208 14546,6309 14626,6518 14690,6686 14843,6926 15110,7272 L 15232,7431 15233,7847 C 15234,8265 15203,8401 15084,8500 15000,8569 14613,8486 14299,8331 13850,8110 13650,7929 13395,7515 L 13174,7156 13129,7258 C 13103,7314 13050,7451 13009,7563 12969,7674 12883,7843 12817,7938 12518,8373 12343,8906 12316,9464 L 12296,9875 12406,9932 C 12467,9963 12578,10072 12654,10173 12730,10275 12851,10413 12923,10481 12997,10552 13111,10726 13186,10887 13305,11140 13369,11219 13809,11650 14078,11915 14355,12180 14424,12239 14493,12298 14595,12431 14651,12534 14707,12637 14779,12740 14811,12763 14843,12786 14954,12929 15058,13081 15162,13232 15282,13400 15326,13453 15369,13506 15431,13641 15464,13753 15496,13865 15569,14028 15627,14115 15685,14203 15791,14392 15862,14536 15961,14738 15988,14822 15990,14973 L 15990,15013 C 15987,15250 15848,15602 15663,15837 15607,15908 15526,16036 15483,16121 15367,16349 14972,17314 14904,17537 14846,17723 14834,17736 14596,17865 14291,18029 13859,18184 13494,18260 13342,18291 13180,18334 13134,18355 12952,18438 12849,18976 12951,19311 12982,19412 13040,19626 13080,19787 13157,20100 13222,20189 13476,20324 13684,20434 14034,20778 14034,20870 14034,20983 13955,20996 13286,20992 12516,20987 12445,20953 12255,20494 12136,20208 12012,20087 11543,19797 11298,19647 11165,19541 11123,19462 11063,19350 11064,19344 11184,19017 11292,18723 11324,18673 11458,18578 11568,18501 11622,18431 11652,18330 11675,18253 11722,18136 11756,18070 11804,17979 11813,17905 11797,17753 11732,17158 11732,17122 11805,17050 11843,17012 11894,16974 11919,16966 11980,16946 12009,16400 11959,16219 11912,16048 11951,15957 12123,15845 12307,15723 12341,15672 12342,15510 12343,15432 12366,15337 12394,15301 12436,15244 12437,15221 12396,15142 12332,15020 12177,14879 12024,14802 11846,14713 10771,14042 10458,13824 10306,13718 10118,13761 9562,14031 9078,14266 9078,14266 8637,14715 8395,14962 8074,15254 7924,15365 7774,15475 7606,15624 7551,15696 7361,15939 6809,16820 6660,17117 6578,17280 6457,17498 6390,17603 6220,17868 5537,18539 5327,18645 5233,18693 5070,18809 4966,18903 4861,18998 4639,19165 4471,19275 4304,19385 4073,19546 3958,19633 3842,19719 3662,19823 3556,19862 3327,19948 3135,20125 3023,20352 2956,20488 2938,20593 2924,20946 2902,21476 2873,21523 2574,21523 2306,21523 2125,21579 1931,21720 1640,21934 1516,21976 1117,21978 L 1054,21978 C 730,21976 601,21960 413,21897 Z"
     id="path1842" /></g><g
   inkscape:groupmode="layer"
   id="layer2"
   inkscape:label="Shoes"><path
     fill="rgb(129,212,26)"
     stroke="none"
     d="M 1931,21639 C 2101,21510 2271,21456 2518,21453 2634,21452 2752,21437 2780,21419 2811,21399 2836,21306 2846,21173 L 2861,20959 2745,20982 C 2681,20995 2504,21066 2352,21140 2199,21215 2060,21276 2042,21276 2024,21276 2005,21162 1999,21022 1989,20781 1983,20765 1883,20707 1800,20660 1733,20652 1576,20670 1399,20691 1366,20708 1294,20815 1197,20959 800,21184 543,21242 253,21306 186,21344 106,21487 L 30,21623 118,21692 C 167,21731 314,21790 445,21824 576,21859 695,21897 710,21909 724,21922 891,21926 1080,21918 1349,21908 1466,21886 1617,21818 1723,21771 1864,21690 1931,21639 Z"
     id="path1849" /><path
     fill="rgb(129,212,26)"
     stroke="none"
     d="M 13884,20903 C 13928,20894 13964,20869 13964,20849 13964,20794 13644,20514 13405,20359 13131,20182 13073,20098 12997,19772 12962,19619 12927,19474 12920,19450 12912,19418 12852,19437 12719,19511 12615,19570 12503,19618 12468,19618 12416,19618 12410,19639 12430,19759 12463,19950 12396,19942 12348,19750 12320,19639 12280,19582 12197,19533 11929,19375 11567,18947 11511,18722 11492,18645 11478,18636 11437,18670 11378,18719 11282,18924 11198,19184 11143,19353 11143,19374 11195,19454 11227,19502 11427,19648 11641,19778 12021,20009 12307,20283 12307,20416 12307,20526 12480,20805 12577,20851 12735,20926 13607,20961 13884,20903 Z"
     id="path1863" /></g><g
   inkscape:groupmode="layer"
   id="layer3"
   inkscape:label="Body"
   style="display:inline"><path
     fill="#ffdbb6"
     stroke="none"
     d="m 2629,20941 c 140,-46 185,-78 198,-143 8,-46 -2,-90 -23,-97 -28,-9 -26,-29 4,-66 24,-29 67,-119 96,-200 29,-82 92,-200 141,-264 l 89,-117 -291,-97 c -159,-54 -356,-134 -438,-179 l -148,-82 -185,322 c -102,178 -250,385 -329,460 -139,134 -140,137 -43,114 223,-54 450,221 394,476 -23,102 -19,108 59,84 45,-14 130,-54 188,-89 59,-34 188,-90 288,-122 z"
     id="path1856" /><path
     fill="#ffdbb6"
     stroke="none"
     d="m 12843,19361 -22,-232 c -16,-179 -6,-283 46,-445 l 67,-212 -129,-23 c -71,-13 -216,-39 -323,-59 -159,-29 -325,-92 -644,-246 -15,-7 -51,48 -80,123 -29,74 -87,201 -130,282 l -76,147 175,276 c 137,218 222,309 397,426 123,83 260,150 304,150 44,0 156,-42 248,-93 z"
     id="path1975" /><path
     fill="#ffdbb6"
     stroke="none"
     d="m 1754,9791 c 304,-148 498,-215 804,-280 222,-47 420,-96 441,-109 21,-12 167,-69 325,-125 303,-108 338,-113 1257,-173 321,-21 654,-61 741,-89 88,-28 175,-53 194,-55 87,-13 618,-300 794,-430 107,-79 337,-272 511,-428 175,-156 423,-363 551,-460 157,-119 296,-268 424,-454 104,-152 241,-335 305,-406 108,-121 117,-124 164,-64 27,35 76,209 108,386 43,234 88,364 164,474 242,351 280,539 192,945 -25,117 -41,222 -34,233 6,12 468,33 1027,46 831,20 1060,37 1262,92 136,36 382,85 547,107 165,22 377,63 473,90 95,27 192,50 214,50 23,0 62,-92 86,-203 64,-286 271,-773 409,-962 155,-212 415,-868 388,-977 -32,-127 -497,-595 -756,-761 -127,-82 -377,-245 -555,-363 -176,-119 -399,-236 -493,-260 -659,-173 -774,-225 -735,-328 42,-110 155,-104 549,27 214,72 398,122 408,111 43,-43 -39,-96 -228,-150 -111,-31 -364,-121 -563,-199 -336,-133 -361,-150 -361,-240 0,-142 73,-188 233,-143 111,30 150,25 245,-33 140,-87 243,-88 539,-2 129,37 285,76 345,86 l 109,19 -91,-182 c -92,-179 -97,-183 -442,-313 -351,-132 -418,-178 -384,-266 34,-91 181,-89 471,5 l 289,93 85,-80 c 110,-104 192,-58 240,136 19,78 53,164 75,191 22,27 82,133 134,236 52,103 115,195 142,205 26,10 164,161 307,335 143,175 323,395 400,490 158,193 424,419 887,756 477,346 463,334 397,336 -91,3 -905,-620 -1199,-918 -148,-149 -361,-388 -474,-531 -113,-143 -282,-345 -376,-448 -93,-104 -170,-208 -170,-233 0,-25 -46,-109 -103,-187 -56,-78 -108,-188 -114,-244 -13,-109 -59,-125 -114,-38 -26,42 -8,83 78,171 62,63 112,137 112,164 0,27 -67,-19 -150,-104 -115,-118 -212,-175 -431,-250 -314,-109 -405,-119 -405,-48 0,42 215,137 494,217 145,42 279,156 303,257 12,52 46,122 75,155 29,33 43,86 31,117 -26,68 -230,47 -568,-58 -252,-78 -383,-84 -436,-19 -57,68 52,111 464,185 190,34 355,77 367,96 13,23 -35,26 -134,11 -85,-13 -251,-39 -367,-57 -116,-18 -299,-65 -406,-104 -249,-90 -397,-95 -381,-12 13,67 446,260 783,348 252,66 374,142 374,232 0,115 -90,112 -507,-20 -461,-145 -445,-142 -445,-79 0,43 289,146 617,221 169,38 337,133 899,511 517,347 876,676 991,909 147,299 412,732 532,868 249,282 784,568 1182,630 131,21 155,13 220,-69 65,-82 73,-142 73,-508 v -414 l -263,-352 c -144,-194 -304,-455 -354,-581 -89,-222 -473,-726 -674,-884 -95,-75 -113,-141 -30,-109 45,18 51,2 32,-80 -86,-386 -195,-626 -466,-1027 -188,-277 -207,-294 -429,-377 -424,-159 -688,-234 -998,-284 -169,-28 -338,-67 -376,-87 -38,-21 -96,-37 -128,-37 -33,0 -139,-40 -235,-89 -97,-48 -189,-80 -205,-70 -45,28 -133,-17 -161,-82 -30,-72 -88,-354 -90,-437 0,-50 -43,-62 -250,-71 l -250,-10 -44,-151 c -25,-83 -60,-170 -79,-194 -20,-24 -45,-91 -58,-149 -12,-58 -76,-200 -141,-315 l -119,-210 16,157 c 20,203 -74,362 -251,421 -159,52 -260,25 -195,-53 24,-29 67,-53 97,-53 47,0 47,-8 -4,-64 -32,-36 -58,-107 -58,-159 0,-80 14,-94 102,-94 107,0 154,63 125,167 -10,34 1,27 24,-17 45,-86 5,-296 -57,-297 -20,0 -57,-18 -83,-39 -36,-31 -79,-6 -188,109 -102,107 -168,147 -244,147 -139,0 -257,-120 -228,-233 16,-66 -2,-105 -77,-170 -85,-73 -98,-110 -98,-278 0,-146 20,-221 80,-302 43,-59 79,-132 79,-161 0,-68 -128,-69 -247,-1 -48,27 -136,50 -194,51 -134,2 -170,28 -222,160 -44,112 -59,245 -49,432 6,101 17,113 86,98 119,-27 326,29 326,88 0,28 -47,61 -106,74 -58,12 -86,24 -61,27 24,2 44,34 44,71 0,84 -62,109 -171,69 -93,-35 -167,32 -289,259 -115,217 -83,275 149,275 74,0 111,20 123,67 10,39 61,75 120,87 87,17 103,37 103,130 0,60 -19,143 -43,186 -23,42 -45,118 -48,167 -3,50 -15,121 -27,159 -32,103 21,158 190,196 123,28 158,24 182,-17 16,-29 80,-63 143,-77 261,-57 409,-254 447,-598 25,-214 119,-251 138,-53 25,263 -206,676 -418,747 -29,10 22,80 136,186 100,93 182,189 182,212 0,65 -165,207 -192,164 -28,-45 -334,134 -531,313 -79,71 -274,181 -441,249 -515,210 -837,605 -1016,1251 -56,202 -100,279 -241,423 -94,97 -259,286 -366,420 -457,573 -527,647 -632,668 -194,39 -671,239 -840,353 -351,236 -834,445 -1360,587 -287,77 -552,157 -589,177 -120,64 -644,-213 -916,-485 -177,-178 -240,-221 -282,-194 -94,58 -80,163 48,342 132,186 133,231 6,231 -45,0 -123,33 -173,72 -50,40 -184,103 -296,142 -300,102 -645,256 -645,288 0,39 305,34 543,-10 113,-21 213,-30 222,-20 31,31 -132,234 -187,234 -29,0 -103,27 -166,61 -62,34 -198,77 -304,97 -197,37 -269,101 -148,133 122,32 347,-31 518,-144 238,-158 266,-99 34,73 -107,79 -195,166 -195,191 0,72 67,57 185,-43 59,-49 170,-122 248,-161 127,-65 146,-67 196,-17 115,116 -112,333 -522,500 -115,47 -200,104 -207,141 -20,96 164,43 624,-181 z"
     id="path1982"
     style="display:inline" /><g
     id="layer6"
     inkscape:label="Lines"
     style="display:inline"><path
       fill="#000000"
       stroke="none"
       d="m 11812,8689 c 0,-17 65,-49 145,-73 148,-45 468,-307 436,-358 -10,-16 -1,-39 18,-51 20,-12 47,5 60,39 17,45 -19,100 -132,200 -229,203 -527,340 -527,243 z"
       id="path1989" /><path
       fill="#000000"
       stroke="none"
       d="m 9151,8323 c -95,-62 -156,-119 -134,-126 52,-17 207,66 379,203 77,62 176,127 220,144 44,17 79,47 79,67 0,58 -46,43 -213,-70 -86,-58 -235,-156 -331,-218 z"
       id="path1996" /><path
       fill="#000000"
       stroke="none"
       d="m 10442,7522 c -56,-30 -69,-96 -87,-443 -16,-293 -42,-453 -92,-567 -86,-195 -143,-494 -144,-754 0,-119 -28,-258 -71,-351 -38,-84 -69,-214 -69,-288 0,-75 -17,-178 -37,-231 -20,-52 -27,-104 -17,-114 47,-47 97,75 126,306 17,139 55,297 84,352 28,56 67,274 86,486 22,260 58,440 110,557 58,129 85,277 103,577 20,325 36,411 84,437 48,27 59,88 59,323 0,404 -38,765 -81,765 -23,0 -27,-174 -12,-510 21,-473 18,-513 -42,-545 z"
       id="path2003" /><path
       fill="#000000"
       stroke="none"
       d="m 11624,8554 c -13,-13 -24,-121 -24,-241 0,-229 -43,-302 -239,-403 -44,-23 -71,-57 -59,-76 12,-20 64,-8 127,28 197,117 234,185 248,460 13,241 2,287 -53,232 z"
       id="path2010" /><path
       fill="#000000"
       stroke="none"
       d="m 9765,8342 c -78,-71 -134,-136 -124,-146 21,-21 334,210 336,248 2,58 -77,20 -212,-102 z"
       id="path2017" /><path
       fill="#000000"
       stroke="none"
       d="m 9572,7658 c -116,-57 -232,-104 -256,-104 -24,0 -44,-16 -44,-35 0,-63 119,-37 335,72 179,90 250,106 459,103 319,-5 327,-4 264,37 -29,19 -164,33 -299,32 -199,-2 -289,-23 -459,-105 z"
       id="path2024" /><path
       fill="#000000"
       stroke="none"
       d="m 9114,7175 c -122,-30 -526,-269 -480,-285 24,-8 140,37 257,99 192,103 234,112 447,97 241,-16 445,-95 672,-258 118,-85 216,-112 215,-60 0,30 -243,174 -511,302 -178,86 -470,137 -600,105 z"
       id="path2031" /><path
       fill="#000000"
       stroke="none"
       d="m 10739,6777 c -18,-18 170,-22 443,-10 524,24 637,3 925,-171 183,-111 274,-105 128,8 -244,187 -385,226 -846,232 -243,3 -481,-2 -529,-11 -49,-10 -103,-31 -121,-48 z"
       id="path2038" /></g></g><g
   inkscape:groupmode="layer"
   id="layer4"
   inkscape:label="Pants"
   style="display:inline"><path
     fill="#800080"
     stroke="none"
     d="m 4422,19230 c 155,-104 391,-281 523,-395 133,-114 316,-245 407,-291 176,-89 749,-648 941,-919 63,-88 174,-283 246,-433 210,-434 819,-1380 1035,-1608 70,-75 248,-228 395,-340 146,-113 382,-329 522,-481 313,-338 611,-592 799,-680 77,-37 294,-139 481,-229 216,-103 387,-162 471,-162 132,0 409,142 687,350 197,147 740,486 992,618 425,221 656,504 544,665 -29,41 -54,131 -56,200 -4,190 -43,257 -212,356 l -156,91 v 503 c 0,452 -6,507 -66,551 -37,27 -85,55 -106,62 -44,15 -45,298 -3,655 l 26,224 233,107 c 194,88 672,197 922,209 186,9 1200,-303 1469,-452 256,-142 265,-153 337,-383 82,-260 481,-1210 586,-1393 50,-87 135,-214 189,-282 160,-204 276,-532 276,-784 -1,-248 -82,-455 -297,-750 -70,-97 -161,-287 -202,-423 -40,-136 -117,-303 -170,-370 -53,-68 -141,-194 -194,-280 -54,-86 -165,-229 -248,-317 -82,-89 -182,-225 -222,-303 -41,-82 -335,-394 -694,-741 -577,-555 -633,-620 -758,-882 -74,-155 -204,-355 -289,-445 -84,-90 -226,-245 -314,-344 l -160,-181 h -250 c -137,0 -383,-23 -545,-51 -163,-28 -455,-67 -649,-87 -194,-20 -479,-69 -634,-108 -181,-47 -452,-80 -758,-92 -263,-11 -601,-44 -751,-73 -390,-75 -556,-17 -801,276 -154,184 -177,232 -177,367 0,137 -17,171 -147,288 -242,220 -349,337 -443,486 -49,77 -189,244 -311,370 -199,205 -814,1074 -959,1355 -30,60 -124,189 -208,287 -83,99 -212,305 -284,459 -73,154 -198,367 -278,474 -80,107 -216,328 -301,492 -169,323 -324,496 -600,673 -204,131 -317,321 -399,672 -29,127 -173,465 -329,773 -152,300 -308,612 -346,693 -38,81 -143,295 -232,476 -90,182 -172,397 -185,479 -35,232 -94,335 -177,313 -159,-41 -194,85 -122,436 37,177 33,219 -35,402 -42,112 -68,219 -57,237 47,75 395,208 809,309 149,37 494,-96 747,-287 113,-85 332,-239 488,-342 z"
     id="path1870" /><g
     id="layer5"
     inkscape:label="Lines"
     style="display:inline"><path
       fill="#000000"
       stroke="none"
       d="m 2959,19341 c 0,-16 194,-57 432,-90 392,-55 519,-94 847,-260 14,-8 26,2 26,21 0,19 -83,82 -185,139 -136,76 -286,119 -562,162 -422,65 -558,72 -558,28 z"
       id="path1877" /><path
       fill="#000000"
       stroke="none"
       d="m 3550,18418 c 266,-66 564,-154 661,-196 292,-124 577,-326 672,-477 49,-78 112,-150 140,-161 28,-10 84,-73 125,-139 94,-153 106,-564 22,-793 -32,-86 -123,-386 -203,-668 -81,-281 -154,-539 -164,-573 -10,-34 -1,-62 20,-62 21,0 86,163 146,362 59,199 163,538 231,754 127,408 155,698 85,882 -20,54 -104,170 -187,258 -82,89 -178,209 -212,267 -59,100 -208,199 -590,392 -156,78 -876,286 -1117,322 -63,9 -114,2 -114,-15 0,-18 218,-87 485,-153 z"
       id="path1884" /><path
       fill="#000000"
       stroke="none"
       d="m 4910,18172 c 81,0 243,-24 359,-52 266,-64 283,-64 234,-5 -55,66 -634,175 -737,138 -87,-32 -1,-80 144,-81 z"
       id="path1891" /><path
       fill="#000000"
       stroke="none"
       d="m 12694,17751 c 0,-36 41,-45 529,-110 165,-22 348,-60 407,-85 59,-25 237,-174 397,-332 159,-158 306,-287 325,-287 44,0 542,-666 666,-890 92,-167 145,-211 145,-120 0,53 -247,432 -448,687 -196,250 -894,918 -1033,991 -204,106 -988,222 -988,146 z"
       id="path1898" /><path
       fill="#000000"
       stroke="none"
       d="m 13543,16478 c 88,0 14,68 -135,124 -148,56 -282,113 -661,281 -163,73 -378,160 -393,160 -7,0 -13,-14 -13,-31 0,-30 1135,-534 1202,-534 z"
       id="path1905" /><path
       fill="#000000"
       stroke="none"
       d="m 12941,15776 c -216,-44 -282,-69 -235,-90 35,-15 146,-10 247,12 100,23 305,51 456,64 151,12 283,36 294,52 31,51 -445,27 -762,-38 z"
       id="path1912" /><path
       fill="#000000"
       stroke="none"
       d="m 13302,15561 c -187,-84 -396,-249 -396,-312 0,-29 43,-10 114,50 63,53 194,132 291,175 168,73 205,76 759,51 320,-14 626,-43 681,-65 122,-49 165,-50 165,-6 0,72 -387,137 -917,156 -488,17 -563,12 -697,-49 z"
       id="path1919" /><path
       fill="#000000"
       stroke="none"
       d="m 5851,15284 c 0,-18 44,-42 97,-55 54,-13 320,-92 591,-177 272,-85 708,-196 970,-248 262,-51 516,-101 565,-111 84,-17 85,-15 21,36 -62,51 -328,117 -996,249 -158,31 -478,120 -712,197 -436,144 -536,164 -536,109 z"
       id="path1926" /><path
       fill="#000000"
       stroke="none"
       d="m 13571,14401 c -246,-60 -501,-110 -566,-110 -179,0 -487,-89 -981,-284 -244,-96 -478,-174 -519,-174 -95,0 -139,-64 -63,-93 31,-12 266,62 522,165 508,203 890,316 1072,316 126,0 358,47 611,125 193,59 682,122 958,122 111,0 210,14 221,31 22,37 -65,77 -151,69 -32,-3 -193,-17 -358,-31 -165,-14 -500,-75 -746,-136 z"
       id="path1933" /><path
       fill="#000000"
       stroke="none"
       d="m 7404,14237 c 456,-21 898,-87 1100,-164 150,-57 203,-8 59,54 -206,90 -620,163 -1036,183 -213,10 -471,26 -573,35 -102,10 -185,3 -185,-14 0,-51 128,-70 635,-94 z"
       id="path1940" /><path
       fill="#000000"
       stroke="none"
       d="m 9548,13286 c -12,-13 -6,-70 14,-128 24,-68 31,-458 20,-1099 -18,-984 -19,-999 -132,-1418 -62,-233 -126,-447 -140,-476 -55,-108 -76,-254 -36,-241 51,17 142,289 276,823 91,363 110,517 130,1084 34,942 -22,1564 -132,1455 z"
       id="path1947" /><path
       fill="#000000"
       stroke="none"
       d="m 12712,12951 c 155,-15 345,-39 423,-54 109,-19 132,-16 101,18 -50,53 -270,105 -454,106 -78,1 -304,33 -504,72 -385,75 -572,88 -572,42 0,-33 603,-144 1006,-184 z"
       id="path1954" /><path
       fill="#000000"
       stroke="none"
       d="m 10496,10257 c -20,-73 -16,-96 16,-86 76,26 91,173 105,1037 13,850 -27,1778 -77,1778 -15,0 -24,-591 -21,-1314 3,-723 -7,-1359 -23,-1415 z"
       id="path1961" /><path
       fill="#000000"
       stroke="none"
       d="m 11513,12211 c 179,-446 286,-862 336,-1305 23,-204 58,-387 78,-406 53,-52 4,595 -65,849 -32,115 -71,276 -87,358 -17,83 -65,225 -107,318 -43,92 -136,342 -208,554 -142,422 -251,564 -143,187 35,-124 123,-373 196,-555 z"
       id="path1968" /></g></g><g
   inkscape:groupmode="layer"
   id="layer7"
   inkscape:label="Belt"><path
     fill="#ffbf00"
     stroke="none"
     d="m 12235,9553 v -330 l -220,-57 c -121,-31 -324,-67 -450,-80 -126,-13 -340,-53 -476,-90 -277,-74 -1435,-147 -2063,-129 l -369,10 -25,147 c -14,81 -51,197 -83,259 -31,61 -53,117 -47,122 43,38 466,94 954,125 317,21 693,67 839,104 146,36 431,84 635,106 204,21 489,61 635,88 145,26 356,50 467,51 l 203,4 z"
     id="path2045"
     style="display:inline" /></g>
</svg>
